<?xml version="1.0" encoding="UTF-8"?>
<svg id="Layer_1" xmlns="http://www.w3.org/2000/svg" version="1.1" viewBox="0 0 584 599.5">
  <!-- Generator: Adobe Illustrator 29.2.0, SVG Export Plug-In . SVG Version: 2.1.0 Build 108)  -->
  <defs>
    <style>
      .st0 {
        fill: none;
        stroke: #0c0000;
        stroke-miterlimit: 10;
        stroke-width: 14.3px;
      }

      .st1 {
        fill: #8ea313;
      }

      .st2 {
        fill: #0c0000;
      }
    </style>
  </defs>
  <g>
    <path class="st1" d="M159.5,558.1C74.6,513.1,3.7,418.7,7.3,313.8c.6-16.7,3.4-97.4,67.5-155,48.9-43.9,120.9-48.1,149.7-50.5,23-1.9,51.3-2.1,51.3-2.1,0,0,32.9-.2,62.2,2.4,52.5,4.6,134.2,10,185.3,63.8,85.5,89.9,44.3,222.6,40.2,235.2-19.1,58.3-55.3,94.8-71.4,109.3-80.8,72.9-218.7,101.8-332.6,41.3h0Z"/>
    <path class="st0" d="M311.5,71.6c-1.1-1.5-1.9-2.8-2.4-3.6l.6-38.6c.2-8.9-5.8-16.3-13.2-16.4l-20.2-.3c-7.4-.1-13.6,7.1-13.7,16l-.6,38.1c0,1.8-.9,3.4-2.4,4.5-5.4,3.7-13.5,8.3-24.2,11-18.4,4.6-33.4.6-41.5-1.7-20.3-5.7-33.9-17-40.9-23.8-4,20.8,3.7,41.3,19.4,51.6,13.9,9.2,29.1,7.2,33.4,6.5-5,2.5-17.2,9.4-24.9,23.9-12.5,23.5-2.8,47.2-1.3,50.4,13.7-23.4,27.9-31.7,38.5-35,13.4-4.1,36.9-5.1,36.9-5.1,0,0-11.1,31.9-2.5,55,6.9,18.6,27.1,28.2,41.6,33.1-1.6-68.3,14.1-86.9,14.1-86.9,6.7,1.1,24.1,4.8,39.9,19.4,15.6,14.5,20.7,31.4,22.3,37.9,3.4-6.8,11.1-24.9,7.4-47.8-2.3-14.2-8.2-24.6-12.2-30.6,3.2,1.2,31.7,11.4,58.7-5.7,30.7-19.5,30.4-55.8,30.3-57.6-20.6,7.3-38.3,11.3-51.3,13.7-30.2,5.5-75.4,13.8-91.9-7.8h0Z"/>
  </g>
  <path class="st2" d="M288.9,276.9c20.2,0,35.9,5.6,47.1,16.7s16.7,27,16.7,47.6-3.1,25.7-9.3,38.9-17.4,29.3-33.6,48.5l-29.1,41.6h77.1v36.6h-133.6v-31.1l61.4-78c7.8-10.8,13.5-20.3,17.2-28.4,3.7-8.1,5.5-16,5.5-23.4s-1.7-18-5.2-23.7c-3.5-5.7-8.5-8.6-15-8.6s-12.9,3.3-17,10c-4.2,6.6-6.3,16-6.3,28h-44.2c0-13.9,2.9-26.6,8.6-38.1s13.9-20.5,24.3-26.9c10.4-6.4,22.2-9.6,35.4-9.6M288.9,263c-15.7,0-30.1,3.9-42.7,11.6-12.6,7.7-22.5,18.7-29.5,32.5-6.7,13.4-10.1,28.3-10.1,44.4v13.9h72v-13.9c0-11.6,2.3-17.6,4.2-20.6,2-3.2,3.6-3.5,5.3-3.5s2.1.2,3.2,1.9c1.5,2.4,3.2,7.2,3.2,16.5s-1.5,11.4-4.3,17.7c-3.3,7.2-8.5,15.9-15.6,25.8l-61.2,77.8-3,3.8v49.8h161.4v-64.3h-64.3l13.5-19.2c16.9-20.1,28.4-36.8,35.1-51.1,7-14.9,10.6-30,10.6-44.8,0-24.3-7-43.6-20.8-57.4s-33-20.8-56.9-20.8h0Z"/>
</svg>