<?xml version="1.0" encoding="UTF-8"?>
<svg id="Layer_1" xmlns="http://www.w3.org/2000/svg" version="1.1" viewBox="0 0 579 589.7">
  <!-- Generator: Adobe Illustrator 29.2.0, SVG Export Plug-In . SVG Version: 2.1.0 Build 108)  -->
  <defs>
    <style>
      .st0 {
        fill: none;
        stroke: #0c0000;
        stroke-miterlimit: 10;
        stroke-width: 14.3px;
      }

      .st1 {
        fill: #8ea313;
      }

      .st2 {
        fill: #0c0000;
      }
    </style>
  </defs>
  <g>
    <path class="st1" d="M156.5,557.1C71.6,512.1.7,417.7,4.3,312.8c.6-16.7,3.4-97.4,67.5-155,48.9-43.9,120.9-48.1,149.7-50.5,23-1.9,51.3-2.1,51.3-2.1,0,0,32.9-.2,62.2,2.4,52.5,4.6,134.2,10,185.3,63.8,85.5,89.9,44.3,222.6,40.2,235.2-19.1,58.3-55.3,94.8-71.4,109.3-80.8,72.9-218.7,101.8-332.6,41.3h0Z"/>
    <path class="st0" d="M308.5,70.6c-1.1-1.5-1.9-2.8-2.4-3.6l.6-38.6c.2-8.9-5.8-16.3-13.2-16.4l-20.2-.3c-7.4-.1-13.6,7.1-13.7,16l-.6,38.1c0,1.8-.9,3.4-2.4,4.5-5.4,3.7-13.5,8.3-24.2,11-18.4,4.6-33.4.6-41.5-1.7-20.3-5.7-33.9-17-40.9-23.8-4,20.8,3.7,41.3,19.4,51.6,13.9,9.2,29.1,7.2,33.4,6.5-5,2.5-17.2,9.4-24.9,23.9-12.5,23.5-2.8,47.2-1.3,50.4,13.7-23.4,27.9-31.7,38.5-35,13.4-4.1,36.9-5.1,36.9-5.1,0,0-11.1,31.9-2.5,55,6.9,18.6,27.1,28.2,41.6,33.1-1.6-68.3,14.1-86.9,14.1-86.9,6.7,1.1,24.1,4.8,39.9,19.4,15.6,14.5,20.7,31.4,22.3,37.9,3.4-6.8,11.1-24.9,7.4-47.8-2.3-14.2-8.2-24.6-12.2-30.6,3.2,1.2,31.7,11.4,58.7-5.7,30.7-19.5,30.4-55.8,30.3-57.6-20.6,7.3-38.3,11.3-51.3,13.7-30.2,5.5-75.4,13.8-91.9-7.8h0Z"/>
  </g>
  <path class="st2" d="M287.1,278.5c22.1,0,39.3,6.1,51.9,18.3s18.8,28.9,18.8,50-2.8,20.9-8.5,30.2c-5.6,9.3-13.1,16.4-22.3,21.3,11.3,4.8,19.7,12.1,25.3,21.7,5.5,9.7,8.3,21.1,8.3,34.2,0,21.3-6.8,38.3-20.3,51.2s-31.4,19.3-53.4,19.3-37.2-6.3-50-19-19.2-29.3-19.2-50h46.6c0,8.6,2.2,15.8,6.8,21.6,4.5,5.8,10.2,8.7,17.1,8.7s14.4-3,19-8.9,7-13.8,7-23.7c0-23.6-9.2-35.4-27.5-35.5h-22.9v-37.5h22.5c8.6,0,14.8-3,18.9-9,4-6,6-14,6-24s-2.1-17-6.2-22.3c-4.1-5.3-9.6-8-16.5-8s-11.8,2.5-15.9,7.6c-4.1,5-6.2,11.4-6.2,19.1h-46.6c0-12.5,2.9-23.7,8.6-33.7s13.8-17.7,24.2-23.3c10.4-5.6,21.9-8.4,34.5-8.4M287.1,264.4c-14.9,0-28.8,3.4-41.2,10.1-12.6,6.8-22.6,16.5-29.7,28.6-7,12.1-10.5,25.8-10.5,40.7v14.1h74.7v-14.1c0-4.4,1-7.7,3-10.2,1.4-1.8,2.7-2.4,5-2.4s4.2.9,5.4,2.5c2.1,2.7,3.2,7.5,3.2,13.7s-1.2,12.5-3.6,16.1c-.6,1-1.8,2.7-7.2,2.7h-36.6v65.7h36.9c5.7,0,13.5.1,13.5,21.5s-1.3,11.6-4,15c-1.4,1.8-3.4,3.5-8,3.5s-3.9-.5-6-3.3c-2.6-3.3-3.8-7.5-3.8-13v-14.1h-74.7v14.1c0,24.4,7.9,44.6,23.3,60,15.5,15.3,35.6,23.1,59.9,23.1s46.9-7.8,63.1-23.1c16.4-15.5,24.7-36.2,24.7-61.4s-3.4-29.5-10.2-41.2c-3.5-6-7.8-11.3-13-15.9,3.7-3.8,7-8.1,9.8-12.8,7-11.5,10.5-24.1,10.5-37.5,0-25-7.7-45.2-23-60.1-15.2-14.8-35.9-22.3-61.7-22.3h0Z"/>
</svg>