<?xml version="1.0" encoding="UTF-8"?>
<svg id="Layer_1" xmlns="http://www.w3.org/2000/svg" version="1.1" viewBox="0 0 569.7 600.1">
  <!-- Generator: Adobe Illustrator 29.2.0, SVG Export Plug-In . SVG Version: 2.1.0 Build 108)  -->
  <defs>
    <style>
      .st0 {
        fill: none;
        stroke: #0c0000;
        stroke-miterlimit: 10;
        stroke-width: 14.3px;
      }

      .st1 {
        fill: #8ea313;
      }

      .st2 {
        fill: #0c0000;
      }
    </style>
  </defs>
  <g>
    <path class="st1" d="M152.2,567.4C67.3,522.3-3.6,428,0,323.1c.6-16.7,3.4-97.4,67.5-155,48.9-43.9,120.9-48.1,149.7-50.5,23-1.9,51.3-2.1,51.3-2.1,0,0,32.9-.2,62.2,2.4,52.5,4.6,134.2,10,185.3,63.8,85.5,89.9,44.3,222.6,40.2,235.2-19.1,58.3-55.3,94.8-71.4,109.3-80.8,72.9-218.7,101.8-332.6,41.3h0Z"/>
    <path class="st0" d="M304.2,80.9c-1.1-1.5-1.9-2.8-2.4-3.6l.6-38.6c.2-8.9-5.8-16.3-13.2-16.4l-20.2-.3c-7.4-.1-13.6,7.1-13.7,16l-.6,38.1c0,1.8-.9,3.4-2.4,4.5-5.4,3.7-13.5,8.3-24.2,11-18.4,4.6-33.4.6-41.5-1.7-20.3-5.7-33.9-17-40.9-23.8-4,20.8,3.7,41.3,19.4,51.6,13.9,9.2,29.1,7.2,33.4,6.5-5,2.5-17.2,9.4-24.9,23.9-12.5,23.5-2.8,47.2-1.3,50.4,13.7-23.4,27.9-31.7,38.5-35,13.4-4.1,36.9-5.1,36.9-5.1,0,0-11.1,31.9-2.5,55,6.9,18.6,27.1,28.2,41.6,33.1-1.6-68.3,14.1-86.9,14.1-86.9,6.7,1.1,24.1,4.8,39.9,19.4,15.6,14.5,20.7,31.4,22.3,37.9,3.4-6.8,11.1-24.9,7.4-47.8-2.3-14.2-8.2-24.6-12.2-30.6,3.2,1.2,31.7,11.4,58.7-5.7,30.7-19.5,30.4-55.8,30.3-57.6-20.6,7.3-38.3,11.3-51.3,13.7-30.2,5.5-75.4,13.8-91.9-7.8h0Z"/>
  </g>
  <path class="st2" d="M322.1,288.8v153.2h21v39.8h-21v53.3h-47.9v-53.3h-81.5l-2.2-31,83.6-162h48M237,442h37.2v-82.4l-1,1.9-36.2,80.5M336.6,274.3h-71.3l-4,7.8-83.6,162-1.9,3.6.3,4,2.2,31,1,13.4h80.5v53.3h76.8v-53.3h21v-68.7h-21v-153.2h0ZM259.4,427.6l.4-.9v.9h-.4Z"/>
</svg>