<?xml version="1.0" encoding="UTF-8"?>
<svg id="Layer_1" xmlns="http://www.w3.org/2000/svg" version="1.1" viewBox="0 0 572.7 594.9">
  <!-- Generator: Adobe Illustrator 29.2.0, SVG Export Plug-In . SVG Version: 2.1.0 Build 108)  -->
  <defs>
    <style>
      .st0 {
        fill: none;
        stroke: #0c0000;
        stroke-miterlimit: 10;
        stroke-width: 14.3px;
      }

      .st1 {
        fill: #8ea313;
      }

      .st2 {
        fill: #0c0000;
      }
    </style>
  </defs>
  <g>
    <path class="st1" d="M152.2,562.2C67.3,517.1-3.6,422.7,0,317.8c.6-16.7,3.4-97.4,67.5-155,48.9-43.9,120.9-48.1,149.7-50.5,23-1.9,51.3-2.1,51.3-2.1,0,0,32.9-.2,62.2,2.4,52.5,4.6,134.2,10,185.3,63.8,85.5,89.9,44.3,222.6,40.2,235.2-19.1,58.3-55.3,94.8-71.4,109.3-80.8,72.9-218.7,101.8-332.6,41.3h0Z"/>
    <path class="st0" d="M304.2,75.6c-1.1-1.5-1.9-2.8-2.4-3.6l.6-38.6c.2-8.9-5.8-16.3-13.2-16.4l-20.2-.3c-7.4-.1-13.6,7.1-13.7,16l-.6,38.1c0,1.8-.9,3.4-2.4,4.5-5.4,3.7-13.5,8.3-24.2,11-18.4,4.6-33.4.6-41.5-1.7-20.3-5.7-33.9-17-40.9-23.8-4,20.8,3.7,41.3,19.4,51.6,13.9,9.2,29.1,7.2,33.4,6.5-5,2.5-17.2,9.4-24.9,23.9-12.5,23.5-2.8,47.2-1.3,50.4,13.7-23.4,27.9-31.7,38.5-35,13.4-4.1,36.9-5.1,36.9-5.1,0,0-11.1,31.9-2.5,55,6.9,18.6,27.1,28.2,41.6,33.1-1.6-68.3,14.1-86.9,14.1-86.9,6.7,1.1,24.1,4.8,39.9,19.4,15.6,14.5,20.7,31.4,22.3,37.9,3.4-6.8,11.1-24.9,7.4-47.8-2.3-14.2-8.2-24.6-12.2-30.6,3.2,1.2,31.7,11.4,58.7-5.7,30.7-19.5,30.4-55.8,30.3-57.6-20.6,7.3-38.3,11.3-51.3,13.7-30.2,5.5-75.4,13.8-91.9-7.8h0Z"/>
  </g>
  <path class="st2" d="M348.1,279.4v42.1h-82.3l-4.5,54.3c9.5-6.4,19.3-9.6,29.4-9.6,20.9,0,37,7.4,48.3,22.3s17,35.9,17,63-6.7,45.9-20.2,61.4-31.5,23.3-54,23.3-25.7-3.2-37.1-9.5c-11.4-6.3-20.3-15.1-26.9-26.4-6.6-11.2-9.9-24-10-38.3h48.7c.8,10.6,3.4,18.7,7.8,24.5,4.4,5.8,10.1,8.7,17.1,8.7s14.4-3.9,18.8-11.8c4.4-7.8,6.6-19.5,6.6-35.1s-2.6-25.6-7.9-33.1c-5.3-7.4-12.7-11.1-22.2-11.1s-16.5,3.2-21.6,9.6l-3.1,4.4-39.2-10.1,12.5-128.8h122.7M362.7,264.8h-150.5l-1.3,13.2-12.5,128.8-1.2,12.4,12.1,3.1,39.2,10.1,9.6,2.5,5.8-8.1,2.9-4c1.6-2,4.1-3.9,10-3.9s7.8,1.5,10.3,5c2.4,3.3,5.2,10.3,5.2,24.6s-2.6,24.1-4.7,27.9c-2.4,4.3-4.5,4.3-6.1,4.3s-3.6-.5-5.5-2.9c-2.6-3.5-4.3-9.3-4.9-16.8l-1-13.5h-76.9v14.7c.2,16.8,4.3,32.1,12.1,45.5,7.9,13.5,18.8,24.2,32.4,31.8,13.5,7.5,28.4,11.3,44.2,11.3,26.8,0,48.7-9.5,65-28.4,15.8-18.2,23.8-42.1,23.8-71s-6.7-54.5-20-71.8c-14.2-18.6-34.3-28-59.9-28s-8.6.5-12.9,1.4l1.4-16.9h83.5v-71.3h0Z"/>
</svg>