<?xml version="1.0" encoding="UTF-8"?>
<svg id="Layer_1" xmlns="http://www.w3.org/2000/svg" version="1.1" viewBox="0 0 574.9 594.5">
  <!-- Generator: Adobe Illustrator 29.2.0, SVG Export Plug-In . SVG Version: 2.1.0 Build 108)  -->
  <defs>
    <style>
      .st0 {
        fill: none;
        stroke: #0c0000;
        stroke-miterlimit: 10;
        stroke-width: 14.3px;
      }

      .st1 {
        fill: #8ea313;
      }

      .st2 {
        fill: #0c0000;
      }
    </style>
  </defs>
  <g>
    <path class="st1" d="M159.2,556.8C74.3,511.7,3.4,417.4,7,312.4c.6-16.7,3.4-97.4,67.5-155,48.9-43.9,120.9-48.1,149.7-50.5,23-1.9,51.3-2.1,51.3-2.1,0,0,32.9-.2,62.2,2.4,52.5,4.6,134.2,10,185.3,63.8,85.5,89.9,44.3,222.6,40.2,235.2-19.1,58.3-55.3,94.8-71.4,109.3-80.8,72.9-218.7,101.8-332.6,41.3h0Z"/>
    <path class="st0" d="M311.1,70.3c-1.1-1.5-1.9-2.8-2.4-3.6l.6-38.6c.2-8.9-5.8-16.3-13.2-16.4l-20.2-.3c-7.4-.1-13.6,7.1-13.7,16l-.6,38.1c0,1.8-.9,3.4-2.4,4.5-5.4,3.7-13.5,8.3-24.2,11-18.4,4.6-33.4.6-41.5-1.7-20.3-5.7-33.9-17-40.9-23.8-4,20.8,3.7,41.3,19.4,51.6,13.9,9.2,29.1,7.2,33.4,6.5-5,2.5-17.2,9.4-24.9,23.9-12.5,23.5-2.8,47.2-1.3,50.4,13.7-23.4,27.9-31.7,38.5-35,13.4-4.1,36.9-5.1,36.9-5.1,0,0-11.1,31.9-2.5,55,6.9,18.6,27.1,28.2,41.6,33.1-1.6-68.3,14.1-86.9,14.1-86.9,6.7,1.1,24.1,4.8,39.9,19.4,15.6,14.5,20.7,31.4,22.3,37.9,3.4-6.8,11.1-24.9,7.4-47.8-2.3-14.2-8.2-24.6-12.2-30.6,3.2,1.2,31.7,11.4,58.7-5.7,30.7-19.5,30.4-55.8,30.3-57.6-20.6,7.3-38.3,11.3-51.3,13.7-30.2,5.5-75.4,13.8-91.9-7.8h0Z"/>
  </g>
  <path class="st2" d="M332.4,269v40.4h-2.7c-17.9.1-32,5.5-42.5,16.1s-16.9,25.5-19.1,44.5c10.2-11.7,23-17.5,38.4-17.5s31.9,7.6,42.5,22.7c10.6,15.1,15.9,35.4,15.9,60.6s-3,30.5-9.1,43.4c-6.1,12.9-14.6,22.9-25.5,30.1s-23.3,10.7-37.1,10.7c-22.2,0-40-8.9-53.5-26.8-13.4-17.8-20.1-41.9-20.1-72.1v-17.7c0-27,4.2-50.7,12.7-71.1s20.7-36,36.7-46.9,34.7-16.5,56-16.6h7.4M292.1,480.4c7.6,0,13.8-4.1,18.4-12.4s6.9-18.9,6.9-31.8-2.4-23.9-7.2-32.1c-4.8-8.3-11-12.4-18.8-12.4s-11.1,1.9-15.2,5.7c-4.1,3.8-7.2,8.5-9.2,14.2v17.2c0,17.3,2.3,30.3,6.9,38.8,4.6,8.5,10.7,12.8,18.2,12.8M346.5,254.9h-21.6c-24.1.1-45.6,6.5-63.9,19-18.2,12.5-32.3,30.3-41.8,53.1-9.2,22-13.8,47.7-13.8,76.5v17.7c0,33.2,7.7,60.3,23,80.5,16.2,21.5,37.9,32.4,64.7,32.4s31.6-4.4,44.8-13c13.1-8.5,23.4-20.6,30.6-35.9,6.9-14.7,10.4-31.4,10.4-49.4,0-28.1-6.2-51.2-18.5-68.7-13.2-18.8-31.9-28.8-54.1-28.8s-8.7.4-12.9,1.2c1.1-1.5,2.3-2.9,3.6-4.2,7.8-7.9,18.5-11.8,32.5-11.9h16.8v-68.6h0ZM281.1,414.3c1.2-2.6,2.7-4.8,4.7-6.6,1-1,2.5-1.9,5.6-1.9s3.5,0,6.6,5.4c3.5,6.1,5.3,14.5,5.3,25.1s-1.7,18.8-5.1,24.9c-2.9,5.2-4.9,5.2-6,5.2s-2.9,0-5.8-5.4c-2.4-4.4-5.2-13.6-5.2-32.1v-14.5h0Z"/>
</svg>