<?xml version="1.0" encoding="UTF-8"?>
<svg id="Layer_1" xmlns="http://www.w3.org/2000/svg" version="1.1" viewBox="0 0 944.3 562.5">
  <!-- Generator: Adobe Illustrator 29.2.0, SVG Export Plug-In . SVG Version: 2.1.0 Build 108)  -->
  <defs>
    <style>
      .st0 {
        fill: #445224;
      }

      .st1 {
        fill: #8ea313;
      }

      .st2 {
        fill: #fff;
      }

      .st3 {
        stroke: #fff;
        stroke-linecap: round;
        stroke-linejoin: round;
        stroke-width: 8.7px;
      }

      .st3, .st4 {
        fill: none;
      }

      .st4 {
        stroke: #0c0000;
        stroke-miterlimit: 10;
        stroke-width: 17.7px;
      }
    </style>
  </defs>
  <g>
    <g>
      <path class="st1" d="M513.5,412c-31.1,0-76.5-1.9-153-17.1-37.4-7.4-115.4-22.9-183.2-43.1-89.4-26.7-130.8-52.1-130.4-79.8.5-28.4,44.8-52.8,139.6-76.7,70.8-17.9,149.7-30,179.4-34.5,29.7-4.6,75.6-10.6,131.8-10.6s20.7.2,31,.6c99.8,3.8,194,7.5,231.2,71.4,19.9,34.2,21,80.3,2.7,114.7-39.5,74.5-159.5,74.9-247.2,75.1h-2,0Z"/>
      <path class="st0" d="M497.6,157.6c9.9,0,20.2.2,30.8.6,98.5,3.8,189.9,7.3,225,67.7,18.1,31.2,19.8,75,2.6,107.4-37.4,70.6-155.2,70.9-240.6,71.1h-2c-37.9,0-82.4-3.2-151.5-16.9-75.8-15-308.5-61.1-307.5-115.4.9-56.2,251.9-94.7,312.6-104,33.8-5.2,77.5-10.5,130.7-10.5M497.6,142.6v15-15c-56.7,0-103,6.1-133,10.7-29.8,4.6-108.9,16.7-180.1,34.7-40.6,10.3-72.9,21-95.9,31.9-32.8,15.6-49,32.6-49.3,52-.5,32,41.3,58.9,135.7,87.1,68.2,20.4,146.4,35.9,183.9,43.3,77.1,15.3,123,17.2,154.4,17.2h2c42.3-.1,94.9-.3,141.2-9.5,26.1-5.2,47.5-12.6,65.4-22.7,21.2-12,37.1-27.8,47.2-46.9,9.6-18.1,14.3-39.4,13.7-61.6-.6-21.9-6.3-42.8-16.6-60.4-9.7-16.6-23.6-30.3-41.5-40.9-15.6-9.2-34.2-16.1-56.9-21.3-40.9-9.2-88.5-11-139-13-10.4-.4-21-.6-31.3-.6h0Z"/>
    </g>
    <path class="st4" d="M824.2,349.8c-7-14.3-17.2-23-23.1-27.3,7,1.5,42.2,8.3,68.7-13.5,5.7-4.7,19-15.6,20-32.6,1.4-22.6-20.1-38-23.7-40.7-27.6-19.6-62.3-7.5-66.8-5.9,7.5-6.9,13.6-15.1,17.6-24.8,1.4-3.4,13.9-33.8-.2-48.8-13.7-14.5-42.8-4.6-44.1-4.2-17.8,6.3-24.9,18.5-45.7,43.6-10.2,12.4-25.3,29.9-45.3,49.9,3.7,4.9,12,17.1,13.5,34.9,1.7,20.7-6.8,35.9-9.9,40.9,21.8,18,38.5,34,49.9,45.4,22.9,23,31.2,34.6,49.6,39.1,2.4.6,30.6,7.1,42.9-8.3,12.4-15.5-.4-41.8-3.4-47.8Z"/>
  </g>
  <g>
    <path class="st2" d="M229.2,306.2h-12.9c0-.1.6-63.9.6-63.9h12.9c0,.1-.6,63.9-.6,63.9Z"/>
    <path class="st2" d="M258.2,281.8l-5.1,6.4-.2,18.2h-12.9c0-.1.6-63.9.6-63.9h12.9c0,.1-.2,28-.2,28l4.1-6.9,12.1-20.9h15.8c0,.1-18.5,28-18.5,28l18.3,35.9h-15.3c0-.1-11.4-24.9-11.4-24.9h0Z"/>
    <path class="st2" d="M310.4,307l.6-63.8h16.9c7.5.2,13.4,2.6,17.8,7.4,4.4,4.8,6.6,11.3,6.6,19.5v10.4c-.2,8.4-2.4,15-6.9,19.7s-10.6,7.1-18.4,7h-16.5ZM323.7,254l-.4,42.4h3.9c4.3,0,7.3-1,9.1-3.3,1.8-2.2,2.7-6.1,2.9-11.7v-11.1c.1-6-.6-10.1-2.3-12.5-1.6-2.4-4.5-3.6-8.5-3.8h-4.7s0,0,0,0Z"/>
    <path class="st2" d="M406.2,281.7c0,8.6-2.2,15.2-6.2,19.9-4.1,4.7-9.7,7-16.9,7-7.2,0-12.8-2.5-16.8-7.2s-6.1-11.3-6-19.8v-10.9c.2-8.8,2.3-15.6,6.4-20.5s9.8-7.3,17-7.2c7.1,0,12.7,2.5,16.7,7.4,4,4.9,6.1,11.7,6,20.4v10.9c-.1,0-.1,0-.1,0ZM393.4,270.9c0-5.8-.7-10-2.3-12.9s-4.1-4.2-7.6-4.3c-3.4,0-6,1.3-7.6,4-1.7,2.7-2.5,6.8-2.7,12.3v11.4c-.1,5.6.6,9.7,2.3,12.4s4.2,4,7.7,4c3.4,0,5.9-1.2,7.5-3.8s2.5-6.6,2.6-12v-11.1c.1,0,.1,0,.1,0Z"/>
    <path class="st2" d="M448.5,280.6l-20.1-.2v16.9c-.1,0,23.6.2,23.6.2v10.7c-.1,0-36.8-.3-36.8-.3l.6-63.8,36.6.3v10.7c-.1,0-23.8-.2-23.8-.2v15.1c-.1,0,19.9.2,19.9.2v10.4q0,0,0,0Z"/>
    <path class="st2" d="M497.4,244.8l11.6,46.3,12.4-46.1h16.8c0,.1-.6,64-.6,64h-12.9c0-.1.2-17.4.2-17.4l1.4-26.6-13.2,43.8h-8.8c0,0-12.4-44.1-12.4-44.1l.9,26.6-.2,17.3h-12.9c0-.1.6-63.9.6-63.9h16.8c0,.1,0,.2,0,.2Z"/>
    <path class="st2" d="M581.3,281.8l-20.1-.2-.2,16.9,23.8.2v10.7c0,0-36.8-.3-36.8-.3l.6-63.8,36.6.3v10.7c0,0-23.8-.2-23.8-.2v15.1c-.1,0,19.9.2,19.9.2v10.4c0,0,0,0,0,0Z"/>
    <path class="st2" d="M625.3,282.2l-20.1-.2-.2,16.9,23.8.2v10.7c0,0-36.8-.3-36.8-.3l.6-63.8,36.6.3v10.7c0,0-23.8-.2-23.8-.2v15.1c-.1,0,19.9.2,19.9.2v10.4c0,0,0,0,0,0Z"/>
  </g>
  <line class="st3" x1="261.1" y1="335.1" x2="561.2" y2="335.1"/>
</svg>