<?xml version="1.0" encoding="UTF-8"?>
<svg id="Layer_1" data-name="Layer 1" xmlns="http://www.w3.org/2000/svg" viewBox="0 0 1000 1000">
  <defs>
    <style>
      .cls-1 {
        fill: #0f0708;
      }

      .cls-2 {
        fill: #861738;
      }

      .cls-3 {
        fill: #fff;
      }

      .cls-4 {
        fill: #5b0522;
      }
    </style>
  </defs>
  <path class="cls-1" d="M508.82,832.58c-.94,0-1.9-.02-2.86-.06-14.95-.66-24.06-6.15-27.95-8.5-9.35-5.64-13.23-12.66-13.77-19.46-3.83,1.33-7.94,2.45-12.31,3.34-18.48,3.79-32.38,3.97-41.29.55h0c-6.78-2.6-9.42-6.9-10.45-10.04-2.38-7.3,1.89-14.21,2.39-14.97,4.55-7.04,12.31-10.21,26.39-15.99,2.73-1.12,5.73-2.35,9.02-3.74,12.7-5.35,25.19-11.13,37.11-17.19l2.26-1.15,2.42.74c5.06,1.55,15.66,4.11,29.91,3.79,12.55-.28,21.83-2.71,26.25-4.13l2.42-.78,2.28,1.12c11.98,5.9,24.54,11.54,37.32,16.74,3.3,1.34,6.32,2.54,9.06,3.62,14.15,5.6,21.95,8.68,26.59,15.67.5.76,4.86,7.61,2.57,14.94-.99,3.16-3.58,7.49-10.33,10.17-12.69,5.04-33.63,1.54-42.04-.2-2.88-.6-5.66-1.31-8.33-2.15-.06.97-.19,1.98-.41,3-1.36,6.25-5.65,11.54-12.75,15.72-4.72,2.78-17.08,8.96-33.49,8.96ZM489.8,777.04l-11.33,19.85c-3.59,6.29-1.57,11.8,6.01,16.38,3.33,2.01,10.26,6.19,22.02,6.71,14.48.63,25.41-4.8,29.44-7.17,3.96-2.33,6.26-4.88,6.85-7.57.75-3.44-1.39-6.73-1.82-7.35l-14.93-21.36,23.02,12.21c5.01,2.66,10.83,4.68,17.29,6.02,11.21,2.32,27.07,3.93,34.86.83.97-.38,2.63-1.18,2.97-2.23.4-1.23-.49-3.41-1.06-4.3-2.44-3.67-8.93-6.24-20.72-10.9-2.78-1.1-5.83-2.31-9.17-3.67-12.26-4.99-24.33-10.37-35.9-16.01-6.28,1.81-15.57,3.71-27.35,3.98-14,.32-25-1.88-31.4-3.62-11.52,5.78-23.52,11.31-35.71,16.45-3.33,1.4-6.37,2.65-9.13,3.78-11.73,4.81-18.19,7.46-20.61,11.19-.53.86-1.4,3.05-.98,4.27.35,1.04,2.03,1.82,3,2.19h0c3.74,1.43,13.17,3.19,34.28-1.13,7.88-1.61,14.97-4.13,20.52-7.28l19.88-11.28Z"/>
  <g>
    <path class="cls-2" d="M510.13,788.81c-2.36,0-4.64-.02-6.8-.07-2.58-.05-63.97-1.54-130.82-22.84-37.79-12.04-70.2-28.11-96.31-47.78-32.83-24.72-55.8-55.2-68.27-90.6-20.65-58.59-12.58-131.01,20.55-184.5,28.31-45.7,64.99-63.5,103.83-82.35,33.75-16.38,68.65-33.32,102.04-70.58,37.69-42.08,61.59-97.04,71.03-163.36l7.75-54.46,10.01,54.09c12.17,65.8,37.41,122.4,75,168.24,34.03,41.5,70.28,64.26,102.27,84.34,39.21,24.62,76.25,47.87,98.24,98.87,15.2,35.25,19.45,74.4,12.63,116.36-5.22,32.15-15.37,54.51-16.51,56.95-14.17,30.34-36.03,56.29-64.98,77.12-23.72,17.07-52.38,30.85-85.19,40.96-57.41,17.68-113.15,19.59-134.46,19.59h0Z"/>
    <path class="cls-4" d="M514.29,128c8.84,47.8,28.38,113.17,76.89,172.31,76.75,93.59,160.85,92.13,199.2,181.07,34.77,80.62-1.47,161.01-3.77,165.94-58.57,125.45-235,132.48-276.48,132.48-2.89,0-5.12-.03-6.62-.06-11.23-.23-235.14-7.81-287.1-155.21-19.81-56.2-12.13-125.36,19.71-176.77,51.04-82.4,131.75-69.98,204.92-151.67,49.72-55.5,66.64-121.71,73.24-168.1M511.98,16.53l-15.51,108.93c-9.19,64.53-32.34,117.9-68.83,158.62-32.2,35.95-66.29,52.49-99.26,68.49-38.29,18.58-77.87,37.79-107.56,85.71-17.02,27.47-28.02,60.01-31.81,94.08-3.8,34.09-.19,68.03,10.43,98.16,56.51,160.32,293.64,167.01,303.71,167.22,2.22.05,4.57.07,6.99.07,21.71,0,78.54-1.95,137.13-20,33.74-10.39,63.28-24.61,87.79-42.25,30.21-21.75,53.05-48.87,67.87-80.62,1.19-2.56,11.83-25.96,17.24-59.31,3.11-19.13,3.97-38.1,2.57-56.37-1.76-22.86-7.08-44.73-15.82-65-23.1-53.57-61.29-77.54-101.72-102.93-32.94-20.68-66.99-42.06-100.09-82.43-36.62-44.65-61.21-99.89-73.11-164.17l-20.01-108.19h0Z"/>
  </g>
  <path class="cls-1" d="M508.82,832.58c-.94,0-1.9-.02-2.86-.06-14.95-.66-24.06-6.15-27.95-8.5-9.35-5.64-13.23-12.66-13.77-19.46-3.83,1.33-7.94,2.45-12.31,3.34-18.48,3.79-32.38,3.97-41.29.55h0c-6.78-2.6-9.42-6.9-10.45-10.04-2.38-7.3,1.89-14.21,2.39-14.97,4.55-7.04,12.31-10.21,26.39-15.99,2.73-1.12,5.73-2.35,9.02-3.74,12.7-5.35,25.19-11.13,37.11-17.19l2.26-1.15,2.42.74c5.06,1.55,15.66,4.11,29.91,3.79,12.55-.28,21.83-2.71,26.25-4.13l2.42-.78,2.28,1.12c11.98,5.9,24.54,11.54,37.32,16.74,3.3,1.34,6.32,2.54,9.06,3.62,14.15,5.6,21.95,8.68,26.59,15.67.5.76,4.86,7.61,2.57,14.94-.99,3.16-3.58,7.49-10.33,10.17-12.69,5.04-33.63,1.54-42.04-.2-2.88-.6-5.66-1.31-8.33-2.15-.06.97-.19,1.98-.41,3-1.36,6.25-5.65,11.54-12.75,15.72-4.72,2.78-17.08,8.96-33.49,8.96ZM489.8,777.04l-11.33,19.85c-3.59,6.29-1.57,11.8,6.01,16.38,3.33,2.01,10.26,6.19,22.02,6.71,14.48.63,25.41-4.8,29.44-7.17,3.96-2.33,6.26-4.88,6.85-7.57.75-3.44-1.39-6.73-1.82-7.35l-14.93-21.36,23.02,12.21c5.01,2.66,10.83,4.68,17.29,6.02,11.21,2.32,27.07,3.93,34.86.83.97-.38,2.63-1.18,2.97-2.23.4-1.23-.49-3.41-1.06-4.3-2.44-3.67-8.93-6.24-20.72-10.9-2.78-1.1-5.83-2.31-9.17-3.67-12.26-4.99-24.33-10.37-35.9-16.01-6.28,1.81-15.57,3.71-27.35,3.98-14,.32-25-1.88-31.4-3.62-11.52,5.78-23.52,11.31-35.71,16.45-3.33,1.4-6.37,2.65-9.13,3.78-11.73,4.81-18.19,7.46-20.61,11.19-.53.86-1.4,3.05-.98,4.27.35,1.04,2.03,1.82,3,2.19h0c3.74,1.43,13.17,3.19,34.28-1.13,7.88-1.61,14.97-4.13,20.52-7.28l19.88-11.28Z"/>
  <path class="cls-3" d="M478.76,655.01c0-8.63,2.73-15.7,8.18-21.21,5.45-5.52,12.56-8.28,21.31-8.28s15.67,2.76,21.12,8.28c5.45,5.52,8.18,12.58,8.18,21.21s-2.69,15.48-8.09,20.93c-5.39,5.45-12.46,8.18-21.21,8.18s-16.01-2.73-21.4-8.18c-5.39-5.45-8.09-12.43-8.09-20.93ZM530.69,595.85h-44.71l-6.28-191.77h57.26l-6.28,191.77Z"/>
</svg>