<?xml version="1.0" encoding="UTF-8"?>
<svg id="Layer_1" data-name="Layer 1" xmlns="http://www.w3.org/2000/svg" viewBox="0 0 800 196.77">
  <defs>
    <style>
      .cls-1 {
        fill: #8ea313;
      }

      .cls-2 {
        fill: #160900;
      }

      .cls-3 {
        fill: #fff;
      }

      .cls-4 {
        fill: #331600;
      }

      .cls-5 {
        fill: #d03934;
      }

      .cls-6 {
        fill: #0c0000;
      }
    </style>
  </defs>
  <g>
    <path class="cls-2" d="M47.79,180.52c-.85,0-1.67-.04-2.44-.11-2.19-.2-4.11-.81-5.72-1.82-1.68-1.05-3.04-2.59-4.04-4.58-.91-1.81-1.5-4.08-1.8-6.94l-6.98-65.87c-.3-2.87.32-5.28,1.86-7.18,1.27-1.57,3.06-2.91,5.3-3.98,3.24-1.55,7.11-2.84,11.47-3.85,4.27-.99,8.89-1.75,13.75-2.26,2.99-.32,5.87-.48,8.57-.48,9.61,0,17.54,2.04,23.59,6.05,7.94,5.28,12.51,13.14,13.6,23.36.69,6.47-.44,12.3-3.33,17.33-2.1,3.64-4.65,6.78-7.6,9.36,2.97,3.19,5.89,6.22,8.73,9.03,3.8,3.77,6.89,7.31,9.21,10.51l.83,1.15-.24,1.39c-.72,4.13-2.54,7.48-5.42,9.98-2.81,2.44-6.14,3.87-9.89,4.27-.96.1-1.89.15-2.77.15-1.29,0-2.52-.11-3.63-.33-1.91-.38-3.65-1.04-5.19-1.95-1.47-.88-2.85-1.99-4.11-3.32-1.13-1.18-2.25-2.51-3.32-3.93l-12.57-16.12-2.22.24,2.76,26.07-2.39.93c-1.15.45-2.85.93-5.18,1.49-2.28.54-4.6.94-6.88,1.18-1.39.15-2.72.22-3.94.22ZM60.59,125.37l5.61-.59c2.72-.29,4.68-1.12,5.98-2.54,1.19-1.3,1.64-3.19,1.37-5.75-.35-3.32-1.73-4.56-2.74-5.2-1.3-.83-3.28-1.25-5.86-1.25-.96,0-2,.06-3.11.18-1.16.12-2.1.26-2.81.4l1.56,14.76Z"/>
    <path class="cls-3" d="M67.76,86.82c8.98,0,16.22,1.83,21.73,5.49,7.1,4.72,11.14,11.69,12.12,20.92.61,5.78-.36,10.88-2.9,15.3-2.55,4.42-5.76,7.96-9.62,10.64,3.84,4.21,7.6,8.15,11.29,11.81,3.69,3.66,6.64,7.03,8.85,10.09-.59,3.36-2.03,6.04-4.31,8.02-2.29,1.99-4.97,3.14-8.05,3.47-.85.09-1.65.13-2.41.13-1.08,0-2.07-.09-2.98-.27-1.54-.31-2.92-.82-4.12-1.54-1.21-.72-2.34-1.64-3.4-2.75-1.06-1.11-2.08-2.33-3.07-3.63l-13.75-17.63-7.41.79,2.85,26.85c-1,.39-2.58.84-4.74,1.35-2.16.51-4.32.88-6.46,1.11-1.28.14-2.48.2-3.58.2-.75,0-1.46-.03-2.13-.09-1.67-.15-3.08-.59-4.24-1.32-1.16-.73-2.1-1.8-2.82-3.24-.72-1.43-1.2-3.36-1.46-5.79l-6.98-65.87c-.21-1.96.17-3.53,1.13-4.72.96-1.18,2.33-2.2,4.13-3.05,3.05-1.45,6.65-2.66,10.79-3.62,4.14-.96,8.59-1.69,13.34-2.19,2.88-.31,5.62-.46,8.22-.46M57.61,129.06l8.95-.95c3.54-.38,6.24-1.58,8.1-3.62,1.86-2.04,2.6-4.82,2.22-8.37-.38-3.54-1.8-6.1-4.28-7.68-1.86-1.18-4.41-1.77-7.66-1.77-1.08,0-2.23.07-3.47.2-1.4.15-2.51.31-3.34.5-.83.18-1.75.42-2.75.72l2.22,20.98M67.76,80.11c-2.82,0-5.82.17-8.93.5-4.99.53-9.74,1.31-14.15,2.33-4.61,1.07-8.7,2.45-12.17,4.1-2.69,1.27-4.87,2.92-6.46,4.89-1.45,1.79-3.08,4.93-2.58,9.64l6.98,65.87c.35,3.26,1.04,5.91,2.14,8.09,1.27,2.54,3.05,4.54,5.26,5.92,2.05,1.28,4.47,2.06,7.18,2.31.87.08,1.79.12,2.74.12,1.34,0,2.79-.08,4.29-.24,2.41-.26,4.87-.68,7.3-1.25,2.52-.6,4.31-1.11,5.63-1.63l4.78-1.86-.54-5.1-1.63-15.41,7.95,10.2c1.14,1.51,2.33,2.91,3.54,4.18,1.46,1.54,3.09,2.85,4.82,3.88,1.86,1.11,3.97,1.91,6.25,2.36,1.33.27,2.77.4,4.29.4.99,0,2.04-.06,3.12-.17,4.45-.47,8.4-2.18,11.74-5.07,3.47-3.02,5.67-7.03,6.53-11.94l.49-2.79-1.66-2.29c-2.42-3.35-5.63-7.03-9.56-10.93-2.08-2.07-4.21-4.25-6.38-6.53,2.18-2.3,4.12-4.9,5.79-7.8,3.26-5.65,4.53-12.17,3.77-19.36-1.19-11.27-6.27-19.95-15.08-25.8-6.61-4.39-15.17-6.61-25.45-6.61h0ZM62.71,113.5c.8-.07,1.55-.11,2.24-.11,2.63,0,3.72.51,4.06.73.29.19.98.63,1.21,2.72.11,1.05.11,2.45-.51,3.14-.71.78-2.01,1.27-3.85,1.47l-2.28.24-.87-8.18h0Z"/>
  </g>
  <g>
    <path class="cls-2" d="M234.25,179.11c-2.21,0-4.4-.15-6.53-.43-5.37-.73-10.31-2.43-14.7-5.07-4.43-2.66-8.24-6.36-11.33-11.01-3.07-4.61-5.23-10.29-6.44-16.9-1.2-6.53-1.15-12.48.14-17.66,1.29-5.19,3.47-9.73,6.47-13.5,2.99-3.75,6.68-6.81,10.96-9.12,4.2-2.25,8.69-3.83,13.34-4.68,2.86-.52,5.67-.79,8.35-.79,2.25,0,4.46.19,6.58.55,4.67.81,8.93,2.37,12.66,4.62,3.77,2.29,6.96,5.32,9.5,8.99,2.53,3.68,4.25,7.93,5.11,12.61.74,4.06.1,7.51-1.9,10.26-1.86,2.54-4.68,4.47-8.38,5.72l-28.32,9.69c.71.41,1.5.73,2.39.98,1.61.45,3.34.67,5.15.67,1.45,0,2.98-.15,4.56-.43,3.45-.63,6.67-1.68,9.57-3.12,2.91-1.45,5.22-2.92,6.87-4.4l1.55-1.38,1.93.77c2.12.84,4.04,2.21,5.71,4.07,1.73,1.94,2.84,4.16,3.28,6.61.99,5.38-.86,10.08-5.35,13.58-2.93,2.32-6.42,4.19-10.36,5.54-3.73,1.28-7.33,2.24-10.71,2.86-3.44.63-6.83.95-10.09.95ZM232.72,124.29c-.67,0-1.41.07-2.2.22-1.72.32-3.15.86-4.22,1.61-1.08.76-1.91,1.61-2.47,2.53-.43.72-.75,1.46-.96,2.24l14.07-5.03c-.23-.2-.49-.39-.75-.59-.9-.65-2.03-.97-3.47-.97Z"/>
    <path class="cls-3" d="M234.52,103.32c2.07,0,4.07.17,6.01.5,4.28.74,8.11,2.14,11.49,4.19,3.38,2.05,6.2,4.73,8.47,8.03,2.27,3.3,3.8,7.07,4.57,11.32.57,3.14.13,5.69-1.31,7.67-1.45,1.98-3.7,3.49-6.75,4.52l-33.23,11.37c1.57,2.86,4.06,4.76,7.48,5.71,1.91.53,3.93.8,6.04.8,1.66,0,3.38-.16,5.16-.49,3.78-.69,7.26-1.83,10.46-3.41,3.19-1.58,5.72-3.22,7.61-4.9,1.64.65,3.12,1.72,4.44,3.19,1.32,1.47,2.15,3.13,2.48,4.98.76,4.15-.61,7.6-4.11,10.33-2.67,2.11-5.79,3.78-9.38,5-3.59,1.23-7,2.14-10.22,2.73-3.26.6-6.42.89-9.49.89-2.07,0-4.09-.13-6.07-.4-4.94-.67-9.41-2.21-13.43-4.62-4.02-2.41-7.44-5.74-10.26-9.99-2.83-4.25-4.81-9.46-5.94-15.64-1.11-6.09-1.08-11.5.1-16.25,1.18-4.74,3.13-8.82,5.84-12.22,2.71-3.4,6.02-6.15,9.93-8.25,3.91-2.1,8.02-3.54,12.36-4.34,2.67-.49,5.25-.73,7.74-.73M219.28,135.74l22.95-8.2c-.61-1.79-1.97-3.45-4.06-4.98-1.48-1.08-3.3-1.62-5.45-1.62-.88,0-1.82.09-2.81.27-2.21.41-4.06,1.13-5.54,2.16-1.48,1.03-2.62,2.22-3.42,3.56-.8,1.34-1.33,2.77-1.57,4.29-.25,1.52-.28,3.03-.1,4.52M234.52,96.61c-2.88,0-5.9.28-8.95.84-5,.91-9.82,2.6-14.32,5.02-4.69,2.52-8.73,5.88-12,9.98-3.31,4.15-5.7,9.12-7.11,14.78-1.41,5.65-1.47,12.07-.19,19.08,1.29,7.06,3.63,13.16,6.95,18.15,3.37,5.06,7.54,9.11,12.4,12.02,4.78,2.87,10.16,4.73,15.98,5.52,2.27.31,4.62.46,6.97.46,3.46,0,7.06-.34,10.7-1,3.54-.65,7.3-1.65,11.19-2.98,4.29-1.47,8.12-3.52,11.37-6.09,5.42-4.23,7.76-10.21,6.55-16.8-.56-3.07-1.93-5.84-4.08-8.24-1.56-1.74-3.31-3.13-5.23-4.15,1.76-1.18,3.24-2.59,4.42-4.21,1.77-2.42,3.64-6.61,2.5-12.85-.94-5.16-2.84-9.84-5.65-13.91-2.81-4.08-6.35-7.43-10.52-9.96-4.09-2.48-8.74-4.18-13.83-5.06-2.31-.4-4.72-.6-7.16-.6h0Z"/>
  </g>
  <g>
    <path class="cls-2" d="M328.84,179.53c-.48,0-.98-.03-1.48-.08l-47.56-4.9-.86-.92c-1.65-1.77-2.92-3.82-3.78-6.09-.89-2.34-1.19-4.92-.91-7.68.24-2.37,1.05-4.67,2.39-6.82,1.21-1.94,2.66-3.75,4.3-5.38l21.76-20.8-20.5-2.11-.77-1.84c-.54-1.28-1-2.86-1.39-4.68-.42-1.97-.52-4.09-.29-6.3.43-4.17,1.81-7.23,4.12-9.1,1.94-1.58,4.3-2.38,7-2.38.48,0,.98.03,1.49.08l45.32,4.67.86.93c1.65,1.77,2.92,3.82,3.77,6.08.89,2.35,1.19,4.94.91,7.68-.24,2.37-1.05,4.66-2.38,6.82-1.21,1.95-2.66,3.76-4.31,5.39l-21.31,20.85,22.28,2.29.77,1.84c.54,1.29.99,2.82,1.39,4.68.42,1.98.52,4.1.29,6.3-.43,4.17-1.81,7.23-4.12,9.1-1.95,1.58-4.3,2.38-7.01,2.38Z"/>
    <path class="cls-3" d="M290.87,103.81c.37,0,.75.02,1.14.06l44.07,4.54c1.36,1.46,2.39,3.12,3.09,4.98.7,1.86.94,3.91.71,6.15-.19,1.87-.83,3.66-1.9,5.39-1.07,1.73-2.35,3.32-3.81,4.77l-26.41,25.84,27.42,2.82c.45,1.08.86,2.44,1.21,4.08.35,1.64.43,3.39.24,5.25-.34,3.27-1.3,5.55-2.9,6.84-1.34,1.09-2.97,1.63-4.89,1.63-.37,0-.75-.02-1.14-.06l-46.31-4.77c-1.36-1.46-2.39-3.12-3.09-4.98-.71-1.86-.94-3.91-.71-6.15.19-1.86.82-3.66,1.9-5.39,1.07-1.73,2.34-3.32,3.81-4.77l26.97-25.78-25.74-2.65c-.45-1.08-.86-2.44-1.21-4.08-.35-1.64-.43-3.39-.24-5.26.34-3.26,1.3-5.54,2.9-6.84,1.34-1.09,2.96-1.63,4.89-1.63M290.87,97.1h0c-3.45,0-6.6,1.08-9.12,3.14-3.02,2.45-4.81,6.28-5.34,11.36-.26,2.56-.15,5.03.35,7.35.44,2.05.95,3.78,1.58,5.27l1.54,3.67,3.96.41,11.29,1.16-16.47,15.74-.04.04-.04.04c-1.84,1.82-3.45,3.84-4.8,6-1.61,2.58-2.58,5.36-2.87,8.24-.34,3.28.04,6.38,1.11,9.22,1.01,2.67,2.51,5.09,4.46,7.18l1.72,1.84,2.51.26,46.31,4.77c.62.06,1.23.1,1.83.1,3.44,0,6.6-1.08,9.12-3.13,3.02-2.46,4.81-6.28,5.34-11.36.26-2.55.15-5.02-.35-7.34-.44-2.07-.96-3.8-1.58-5.28l-1.54-3.68-3.97-.41-13.18-1.36,16.18-15.83c1.85-1.83,3.47-3.85,4.82-6.02,1.61-2.6,2.58-5.37,2.88-8.25.34-3.27-.04-6.37-1.11-9.21-1.01-2.68-2.51-5.09-4.45-7.18l-1.72-1.85-2.51-.26-44.07-4.54c-.62-.06-1.23-.1-1.83-.1h0Z"/>
  </g>
  <g>
    <path class="cls-2" d="M383.85,179.49c-4.9,0-9.6-.62-13.97-1.85-5.21-1.46-9.88-3.84-13.86-7.05-4.02-3.25-7.28-7.44-9.7-12.47-2.4-4.99-3.76-10.92-4.04-17.63-.28-6.64.59-12.51,2.59-17.47,2-4.96,4.78-9.16,8.28-12.47,3.48-3.3,7.55-5.82,12.12-7.51,4.47-1.65,9.14-2.59,13.86-2.79.72-.03,1.44-.05,2.14-.05,4.52,0,8.79.63,12.68,1.88,4.52,1.45,8.52,3.58,11.9,6.33,3.42,2.79,6.16,6.23,8.16,10.22,2,4,3.11,8.44,3.31,13.2.17,4.12-.94,7.45-3.3,9.9-2.19,2.26-5.25,3.78-9.09,4.51l-29.39,5.68c.64.5,1.39.93,2.23,1.3,2.45,1.07,5.27,1.61,8.38,1.61.4,0,.8,0,1.2-.03,3.5-.15,6.84-.74,9.91-1.76,3.08-1.03,5.57-2.17,7.41-3.4l1.72-1.15,1.8,1.02c1.98,1.13,3.7,2.75,5.08,4.82,1.45,2.16,2.23,4.51,2.34,7,.23,5.47-2.25,9.86-7.18,12.71-3.23,1.89-6.94,3.26-11.02,4.05-3.88.75-7.58,1.2-11,1.34-.86.04-1.72.05-2.57.05ZM380.78,124.37c-.2,0-.41,0-.62.01-1.75.07-3.23.41-4.4,1.01-1.18.6-2.12,1.33-2.79,2.17-.53.65-.94,1.34-1.26,2.08l14.63-3.03c-.2-.23-.43-.46-.66-.69-1.08-1.04-2.68-1.55-4.89-1.55Z"/>
    <path class="cls-3" d="M381.28,103.57c4.19,0,8.08.57,11.65,1.72,4.14,1.33,7.74,3.24,10.8,5.74,3.06,2.5,5.49,5.54,7.28,9.12,1.79,3.58,2.78,7.53,2.96,11.84.13,3.19-.65,5.66-2.36,7.42-1.71,1.76-4.15,2.94-7.31,3.55l-34.49,6.66c1.16,3.05,3.37,5.28,6.62,6.69,2.89,1.26,6.13,1.88,9.72,1.88.44,0,.89,0,1.34-.03,3.84-.16,7.45-.81,10.83-1.93,3.38-1.13,6.11-2.39,8.22-3.8,1.54.87,2.86,2.13,3.96,3.78,1.1,1.64,1.69,3.4,1.77,5.27.18,4.22-1.66,7.44-5.5,9.66-2.93,1.72-6.26,2.94-9.98,3.66-3.72.72-7.23,1.15-10.5,1.29-.82.03-1.62.05-2.42.05-4.62,0-8.97-.57-13.06-1.72-4.8-1.35-9.01-3.49-12.66-6.43-3.64-2.94-6.57-6.71-8.78-11.31-2.21-4.6-3.45-10.04-3.71-16.31-.26-6.18.52-11.54,2.35-16.08,1.83-4.53,4.32-8.3,7.48-11.29,3.16-2.99,6.82-5.26,10.97-6.8,4.16-1.53,8.44-2.4,12.84-2.58.67-.03,1.34-.04,2-.04M367.46,133.95l23.86-4.95c-.36-1.86-1.47-3.69-3.33-5.49-1.72-1.66-4.13-2.49-7.22-2.49-.25,0-.51,0-.77.02-2.25.09-4.18.55-5.78,1.37-1.61.82-2.9,1.84-3.88,3.05-.98,1.22-1.7,2.56-2.15,4.03-.45,1.48-.7,2.96-.73,4.47M381.28,96.85c-.75,0-1.52.02-2.28.05-5.08.21-10.08,1.22-14.88,2.99-5,1.85-9.46,4.61-13.27,8.22-3.85,3.65-6.9,8.25-9.08,13.66-2.18,5.4-3.13,11.75-2.83,18.87.3,7.17,1.77,13.54,4.37,18.94,2.63,5.48,6.2,10.06,10.61,13.62,4.34,3.51,9.41,6.09,15.06,7.68,4.66,1.31,9.66,1.97,14.87,1.97.89,0,1.8-.02,2.71-.06,3.59-.15,7.46-.62,11.49-1.4,4.46-.86,8.53-2.36,12.1-4.46,5.95-3.44,9.1-9.04,8.81-15.74-.13-3.12-1.11-6.05-2.9-8.73-1.3-1.94-2.84-3.55-4.6-4.83,1.91-.93,3.57-2.12,4.97-3.56,2.09-2.15,4.52-6.05,4.25-12.37-.22-5.24-1.45-10.13-3.66-14.56-2.21-4.42-5.25-8.23-9.04-11.32-3.7-3.02-8.07-5.35-12.99-6.93-4.23-1.35-8.84-2.04-13.7-2.04h0Z"/>
  </g>
  <g>
    <path class="cls-4" d="M520.32,182.86c-1.66,0-3.36-.09-5.08-.27-2.24-.23-4.27-.6-6.04-1.1-2.11-.59-3.91-1.56-5.33-2.87-1.47-1.36-2.54-3.1-3.17-5.18-.59-1.95-.74-4.26-.45-7.08l3.44-33.43c.18-1.72-.08-2.92-.76-3.59-.89-.87-2.32-1.42-4.24-1.61-.19-.02-.38-.03-.57-.03-.73,0-1.55.13-2.44.39-.47.14-.86.27-1.19.39l-5.08,49.38-2.53.42c-1.21.2-2.87.33-5.06.41-.56.02-1.13.03-1.69.03-1.62,0-3.27-.08-4.9-.25-2.23-.23-4.26-.6-6.04-1.09-2.12-.59-3.91-1.56-5.33-2.87-1.48-1.36-2.54-3.11-3.17-5.19-.59-1.95-.74-4.26-.45-7.07l3.44-33.43c.26-2.5-.59-3.26-.87-3.52-1.06-.96-2.41-1.51-4.13-1.68-.4-.04-.79-.06-1.15-.06-.74,0-1.39.08-1.94.25-.38.12-.74.23-1.09.35l-5.1,49.53-2.45.47c-1.14.22-2.78.36-5,.44-.55.02-1.1.03-1.65.03-1.66,0-3.37-.09-5.08-.27-2.23-.23-4.26-.6-6.04-1.09-2.11-.59-3.91-1.56-5.33-2.87-1.48-1.37-2.54-3.11-3.17-5.19-.59-1.94-.74-4.26-.45-7.07l4.35-42.25c.33-3.22,1.36-5.82,3.05-7.73,1.47-1.66,3.39-3.15,5.72-4.45,3.69-2.08,8.2-3.63,13.4-4.6,3.26-.62,6.64-.93,10.02-.93,1.95,0,3.94.1,5.92.31,4.11.42,8.16,1.43,12.01,3,3.15,1.28,5.96,2.93,8.38,4.92,2.67-1.21,5.55-2.19,8.6-2.9,2.51-.59,5.32-.89,8.35-.89,1.77,0,3.66.1,5.61.3,3.82.39,7.57,1.29,11.15,2.68,3.69,1.43,6.96,3.46,9.71,6.01,2.83,2.64,4.99,5.99,6.42,9.95,1.41,3.94,1.85,8.59,1.31,13.82l-4.79,46.55-2.45.47c-1.14.22-2.78.36-5,.44-.55.02-1.1.03-1.66.03Z"/>
    <path class="cls-3" d="M456.77,101.52c1.84,0,3.7.1,5.58.29,3.82.39,7.52,1.32,11.1,2.77,3.57,1.45,6.6,3.39,9.09,5.81,2.99-1.58,6.3-2.79,9.92-3.64,2.27-.53,4.8-.8,7.59-.8,1.66,0,3.41.09,5.26.29,3.54.36,6.97,1.19,10.28,2.47,3.31,1.28,6.19,3.06,8.64,5.34,2.45,2.28,4.3,5.16,5.54,8.63,1.24,3.47,1.62,7.59,1.13,12.34l-4.54,44.07c-.96.18-2.46.31-4.49.39-.51.02-1.02.03-1.53.03-1.55,0-3.13-.08-4.74-.25-2.05-.21-3.88-.54-5.48-.99-1.6-.45-2.92-1.15-3.95-2.1-1.03-.95-1.78-2.18-2.23-3.69-.46-1.51-.57-3.43-.33-5.76l3.44-33.43c.29-2.8-.3-4.91-1.75-6.33-1.46-1.42-3.54-2.27-6.24-2.55-.3-.03-.6-.05-.92-.05-1.05,0-2.18.17-3.37.52-1.56.45-2.74.97-3.55,1.54.05.38.07.74.03,1.06-.03.33-.06.63-.09.91l-4.8,46.59c-1.06.17-2.6.3-4.63.37-.52.02-1.05.03-1.57.03-1.51,0-3.03-.08-4.56-.24-2.05-.21-3.88-.54-5.48-.99-1.6-.45-2.92-1.15-3.95-2.1s-1.78-2.18-2.23-3.69c-.46-1.51-.57-3.43-.33-5.76l3.44-33.43c.29-2.8-.37-4.92-1.96-6.35-1.6-1.44-3.61-2.28-6.03-2.53-.52-.05-1.01-.08-1.49-.08-1.07,0-2.05.13-2.92.4-1.27.39-2.34.77-3.23,1.15l-5.06,49.1c-.96.18-2.46.31-4.49.39-.51.02-1.02.03-1.53.03-1.55,0-3.13-.08-4.74-.25-2.05-.21-3.88-.54-5.48-.99-1.6-.45-2.92-1.15-3.95-2.1-1.03-.95-1.78-2.18-2.23-3.69-.46-1.51-.57-3.43-.33-5.76l4.35-42.25c.26-2.52,1-4.47,2.23-5.85,1.22-1.38,2.84-2.63,4.84-3.74,3.4-1.91,7.53-3.32,12.38-4.24,3.08-.58,6.21-.87,9.39-.87M456.77,94.81h0c-3.59,0-7.17.33-10.64.99-5.55,1.04-10.41,2.72-14.43,4.98-2.63,1.47-4.85,3.2-6.57,5.14-2.17,2.45-3.48,5.68-3.88,9.62l-4.35,42.25c-.34,3.27-.15,6.01.58,8.4.8,2.65,2.18,4.89,4.1,6.67,1.82,1.68,4.07,2.9,6.7,3.64,1.96.55,4.18.95,6.6,1.2,1.83.19,3.65.28,5.42.28.59,0,1.18-.01,1.77-.03,2.43-.09,4.18-.25,5.51-.5l4.9-.94.51-4.97,4.6-44.63c.23,0,.48.02.74.04,1.07.11,1.66.41,2.02.67.02.16.03.43-.02.85l-3.44,33.43c-.34,3.27-.15,6.01.58,8.4.8,2.65,2.18,4.89,4.1,6.67,1.82,1.68,4.07,2.9,6.7,3.64,1.96.55,4.18.95,6.6,1.2,1.74.18,3.51.27,5.24.27.61,0,1.21-.01,1.81-.03,2.34-.08,4.13-.23,5.48-.46l5.06-.83.53-5.1,4.59-44.56c.22-.03.39-.04.52-.04.08,0,.16,0,.23.01,1.01.1,1.67.32,2.02.52.02.19.03.51-.02,1l-3.44,33.43c-.34,3.27-.15,6.01.58,8.4.8,2.65,2.18,4.89,4.1,6.67,1.82,1.68,4.07,2.9,6.71,3.64,1.96.55,4.18.95,6.6,1.2,1.83.19,3.66.28,5.43.28.59,0,1.18-.01,1.77-.03,2.43-.09,4.18-.25,5.51-.5l4.91-.94.51-4.97,4.54-44.07c.59-5.74.09-10.88-1.49-15.29-1.61-4.48-4.06-8.28-7.29-11.28-3.07-2.85-6.7-5.1-10.78-6.69-3.86-1.5-7.9-2.47-12.02-2.89-2.06-.21-4.07-.32-5.95-.32-3.29,0-6.36.33-9.12.98-2.56.6-5.02,1.38-7.35,2.31-2.28-1.64-4.82-3.04-7.6-4.17-4.15-1.69-8.51-2.77-12.93-3.23-2.1-.22-4.21-.33-6.27-.33h0Z"/>
  </g>
  <g>
    <path class="cls-2" d="M672.42,181.62c-1.17,0-2.38-.06-3.59-.17-3.92-.36-7.6-.96-10.94-1.78-5.69-1.4-10.87-3.53-15.38-6.34-4.6-2.86-8.41-6.44-11.34-10.64-2.95-4.24-4.91-9.18-5.83-14.68-.91-5.46-.56-11.53,1.04-18.05,1.58-6.45,4.06-11.85,7.36-16.05,3.3-4.21,7.15-7.46,11.43-9.67,4.26-2.19,8.88-3.48,13.74-3.83,1.09-.08,2.19-.12,3.28-.12,3.64,0,7.28.44,10.81,1.31,5.19,1.27,9.8,3.26,13.72,5.9,3.93,2.65,7.18,5.82,9.66,9.4,2.5,3.63,4.18,7.7,4.98,12.09.8,4.4.63,8.97-.5,13.6-.98,4.01-2.98,6.89-5.94,8.58-2.21,1.26-4.84,1.9-7.81,1.9-.7,0-1.44-.04-2.18-.11l-29.81-2.75c.48.66,1.07,1.28,1.78,1.87,2.32,1.92,5.26,3.34,8.76,4.19,2.96.73,5.9,1.1,8.72,1.1.43,0,.86,0,1.28-.03,3.24-.13,5.96-.53,8.07-1.2l1.98-.62,1.44,1.49c1.59,1.64,2.78,3.67,3.54,6.05.79,2.48.88,4.96.29,7.38-1.31,5.31-4.92,8.84-10.44,10.2-2.56.65-5.3.98-8.13.98ZM672.56,128.92c-.13-.28-.28-.56-.45-.85-.81-1.42-2.4-2.41-4.86-3.01-1.07-.26-2.08-.4-2.99-.4-.53,0-1.04.04-1.51.14-1.3.25-2.41.68-3.29,1.3-.69.48-1.28,1.02-1.79,1.65l14.89,1.17Z"/>
    <path class="cls-3" d="M662.2,103.65c3.38,0,6.72.4,10.01,1.21,4.83,1.19,9.04,2.99,12.64,5.42,3.6,2.43,6.53,5.27,8.77,8.52,2.24,3.25,3.72,6.85,4.45,10.79.72,3.94.57,8.01-.46,12.2-.76,3.1-2.21,5.25-4.34,6.46-1.71.97-3.75,1.46-6.15,1.46-.6,0-1.22-.03-1.86-.09l-34.98-3.23c.26,3.25,1.76,6.01,4.49,8.27,2.72,2.26,6.09,3.89,10.1,4.87,3.24.8,6.41,1.19,9.52,1.19.47,0,.94,0,1.41-.03,3.56-.14,6.54-.59,8.95-1.35,1.23,1.27,2.15,2.85,2.75,4.73.6,1.88.68,3.74.23,5.56-1.01,4.1-3.67,6.68-7.98,7.74-2.32.59-4.76.88-7.32.88-1.07,0-2.17-.05-3.28-.15-3.78-.35-7.26-.91-10.44-1.7-5.37-1.32-10.17-3.3-14.4-5.93-4.23-2.63-7.68-5.87-10.36-9.71-2.68-3.84-4.44-8.28-5.27-13.31-.84-5.03-.51-10.6.99-16.7,1.48-6.01,3.72-10.94,6.74-14.78,3.02-3.84,6.46-6.76,10.33-8.76,3.87-1.99,8.01-3.15,12.44-3.46,1.02-.07,2.03-.11,3.04-.11M676.7,132.61c.17-1.89-.38-3.95-1.66-6.2-1.28-2.24-3.61-3.78-6.98-4.61-1.34-.33-2.61-.49-3.79-.49-.75,0-1.46.06-2.14.19-1.77.34-3.3.95-4.58,1.84-1.28.89-2.35,1.98-3.19,3.27-.85,1.29-1.5,2.65-1.94,4.08l24.29,1.91M662.2,96.94c-1.16,0-2.34.04-3.51.12-5.31.38-10.37,1.79-15.04,4.19-4.71,2.43-8.93,5.99-12.54,10.58-3.6,4.58-6.29,10.41-7.98,17.32-1.71,6.97-2.08,13.5-1.09,19.41,1,5.99,3.15,11.39,6.39,16.04,3.19,4.58,7.33,8.47,12.32,11.58,4.81,2.99,10.31,5.26,16.35,6.75,3.49.86,7.34,1.48,11.43,1.86,1.31.12,2.62.18,3.9.18,3.1,0,6.12-.36,8.97-1.08,6.68-1.64,11.26-6.14,12.86-12.65.74-3.03.63-6.12-.35-9.19-.71-2.22-1.74-4.21-3.07-5.92,2.09-.36,4.02-1.04,5.76-2.03,2.61-1.49,6.03-4.55,7.54-10.7,1.25-5.09,1.43-10.14.55-15-.89-4.87-2.75-9.37-5.52-13.4-2.71-3.94-6.26-7.39-10.54-10.28-4.25-2.86-9.23-5.01-14.79-6.38-3.8-.93-7.71-1.41-11.61-1.41h0Z"/>
  </g>
  <g>
    <path class="cls-2" d="M730.84,180.25c-1.18,0-2.36-.03-3.49-.1-3.73-.21-7.03-.83-9.83-1.85-2.99-1.08-5.46-2.64-7.36-4.64-2.05-2.16-3.27-4.86-3.61-8.02-.31-2.85.06-5.4,1.08-7.6.92-1.99,2.15-3.74,3.63-5.19l1.59-1.55,2.05.86c2.66,1.11,5.73,2.05,9.15,2.79,1.98.43,4.16.65,6.48.65,1.5,0,3.09-.09,4.73-.27,2.88-.31,4.28-.93,4.95-1.4.44-.3.53-.49.53-.49-.02-.08-.04-.15-.04-.15,0,0-.05-.05-.2-.13-.35-.18-1.49-.63-4.47-.84l-4.35-.39c-8.94-.76-15.66-2.75-20.52-6.09-5.15-3.53-8.17-9.04-8.96-16.37-.43-3.98.05-7.76,1.44-11.22,1.38-3.44,3.55-6.46,6.45-8.96,2.78-2.4,6.21-4.4,10.21-5.97,3.93-1.54,8.37-2.58,13.21-3.11,2.41-.26,4.79-.4,7.05-.4,1.12,0,2.23.03,3.31.1,3.37.2,6.4.75,9.01,1.62,2.84.95,5.21,2.37,7.06,4.22,2.03,2.04,3.22,4.6,3.55,7.6.29,2.67.02,5.1-.79,7.22-.78,2.03-1.89,3.81-3.29,5.28l-1.68,1.77-2.2-1.06c-.32-.15-1.11-.47-2.8-.86-1.45-.33-3.04-.6-4.72-.81-1.73-.22-3.49-.36-5.23-.44-.57-.03-1.13-.04-1.66-.04-1.02,0-1.97.05-2.83.14-3.26.35-4.93.97-5.76,1.43-.1.05-.18.11-.25.15.45.17,1.55.48,4,.74l4.48.51c9.88,1.16,16.96,3.47,21.66,7.05,4.91,3.75,7.76,9,8.47,15.6.89,8.15-1.54,14.99-7.2,20.31-5.4,5.07-13.73,8.25-24.77,9.45-2.79.3-5.5.46-8.06.46Z"/>
    <path class="cls-3" d="M740.57,103.17c1.06,0,2.09.03,3.11.09,3.08.19,5.8.67,8.15,1.45,2.35.78,4.26,1.92,5.75,3.41,1.48,1.49,2.34,3.35,2.59,5.59.23,2.15.03,4.03-.59,5.65-.63,1.62-1.49,3.02-2.59,4.17-.8-.38-1.97-.75-3.52-1.1-1.55-.35-3.23-.64-5.04-.87-1.82-.23-3.65-.38-5.5-.46-.62-.03-1.23-.04-1.81-.04-1.15,0-2.21.05-3.2.16-3.08.33-5.41.94-7.02,1.82-1.6.88-2.32,2.07-2.16,3.56.11,1.03.67,1.82,1.67,2.36,1,.55,2.84.96,5.51,1.24l4.44.51c9.17,1.08,15.84,3.21,20,6.39,4.16,3.18,6.55,7.61,7.17,13.3.77,7.09-1.29,12.92-6.16,17.5-4.88,4.58-12.49,7.44-22.84,8.56-2.68.29-5.25.44-7.7.44-1.12,0-2.22-.03-3.3-.09-3.42-.2-6.38-.75-8.88-1.65-2.5-.91-4.53-2.17-6.07-3.8-1.54-1.62-2.45-3.65-2.71-6.07-.24-2.24.02-4.17.78-5.81.76-1.64,1.74-3.04,2.94-4.21,2.86,1.2,6.11,2.19,9.73,2.98,2.22.48,4.62.72,7.19.72,1.63,0,3.32-.1,5.09-.29,2.89-.31,5.06-.97,6.5-1.98,1.45-1.01,2.09-2.21,1.94-3.61-.14-1.3-.81-2.27-2.01-2.89-1.2-.62-3.13-1.03-5.79-1.21l-4.29-.38c-8.28-.7-14.59-2.54-18.92-5.52-4.33-2.97-6.84-7.63-7.53-13.97-.37-3.45.03-6.65,1.22-9.61,1.19-2.96,3.03-5.51,5.53-7.67,2.5-2.16,5.58-3.95,9.25-5.39,3.66-1.43,7.78-2.4,12.35-2.9,2.31-.25,4.54-.38,6.69-.38M740.57,96.46c-2.39,0-4.88.14-7.42.41-5.13.56-9.87,1.67-14.07,3.32-4.36,1.71-8.12,3.91-11.18,6.56-3.31,2.86-5.8,6.31-7.38,10.26-1.6,3.97-2.16,8.29-1.66,12.83.91,8.35,4.41,14.66,10.4,18.78.3.21.6.41.92.6l-1.27,1.24c-1.77,1.73-3.23,3.81-4.33,6.18-1.28,2.75-1.75,5.9-1.37,9.37.42,3.91,1.95,7.27,4.52,9.97,2.25,2.37,5.16,4.22,8.65,5.48,3.11,1.12,6.73,1.81,10.78,2.04,1.2.07,2.44.1,3.68.1,2.68,0,5.51-.16,8.42-.48,11.94-1.3,20.68-4.68,26.71-10.34,6.38-6,9.23-13.99,8.24-23.12-.82-7.56-4.11-13.58-9.77-17.91-1.13-.86-2.38-1.66-3.75-2.39l1.16-1.22c1.7-1.79,3.04-3.94,3.99-6.38,1.01-2.64,1.35-5.59,1-8.79-.4-3.72-1.96-7.04-4.5-9.6-2.23-2.24-5.05-3.93-8.38-5.04-2.89-.96-6.21-1.56-9.87-1.78-1.15-.07-2.33-.1-3.51-.1h0Z"/>
  </g>
  <path class="cls-3" d="M571.2,95.73c.82,0,1.64.3,2.32.85.81.66,1.38,1.62,1.6,2.7l1.33,6.62c.06.06.13.12.2.18.88.75,2.1,1.05,3.51,1.05,3.71,0,8.68-2.08,12.02-3.48,2.93-1.22,5.8-2.71,8.54-4.4l1.55-.96.43,1.77c.08.31,1.76,7.58-3.56,12.85-2.76,2.74-6.01,3.58-8.39,3.79.7.99,1.27,2.05,1.72,3.19,1.62,4.08,1.08,7.85.61,9.73l-.88,3.52-1.6-3.26c-.63-1.29-2.12-3.71-5-5.41-2.4-1.41-4.77-1.74-6.34-1.77-.37,1.55-.93,5.88,1.21,14.63l.45,1.84-1.89-.22c-4.74-.55-8.03-2.21-9.78-4.93-1.81-2.82-2.07-6.65-2.04-8.95-1.36.43-3.19,1.07-4.38,1.74-2.16,1.22-3.83,3.61-4.96,7.09l-.81,2.49-1.52-2.13c-.58-.81-3.4-5.11-1.95-10.29.29-1.02.73-2.01,1.3-2.93-1.01,0-2.11-.18-3.25-.62-3.77-1.46-6.27-5.29-6.38-9.76l-.06-2.45,2.08,1.3c1.64,1.02,4.31,2.29,7.7,2.48.37.02.83.05,1.35.05,1.45,0,3.42-.2,5.55-1.25,1.28-.63,2.44-1.49,3.45-2.54l-1.36-6.74c-.22-1.08-.07-2.19.43-3.11.53-.99,1.39-1.69,2.45-1.88l3.66-.74c.22-.04.44-.07.66-.07M556.36,114.7c-.59,0-1.1-.03-1.49-.05-2.24-.13-4.46-.67-6.55-1.6.68,2.3,2.24,4.12,4.32,4.93.82.32,1.63.43,2.37.43,1.32,0,2.42-.36,2.95-.58l8.31-3.35-6.99,5.61c-.87.7-2.43,2.23-3.11,4.62-.61,2.18-.24,4.17.31,5.64,1.29-2.69,2.99-4.64,5.09-5.83,2.37-1.34,6.59-2.46,6.77-2.51l1.88-.5-.23,1.93c0,.06-.65,5.78,1.52,9.16,1.08,1.68,3.09,2.84,5.98,3.44-2.37-10.93-.55-14.83-.32-15.26l.35-.66.74-.04c.24-.01.51-.02.81-.02,1.88,0,4.87.35,7.9,2.14,1.7,1,3,2.21,3.97,3.36-.01-1.4-.24-3.01-.9-4.69-.69-1.73-1.73-3.27-3.1-4.58l-2.99-2.87,4.1.6c.16.02.66.09,1.39.09,1.86,0,5.2-.43,7.87-3.07,2.85-2.82,3.19-6.37,3.09-8.5-2.33,1.34-4.73,2.53-7.17,3.55-3.75,1.57-8.8,3.68-13.04,3.68-1.99,0-3.8-.46-5.22-1.67-.26-.22-.49-.45-.71-.71l-.23-.26-1.47-7.32c-.1-.47-.34-.9-.67-1.16-.13-.11-.37-.26-.66-.26-.05,0-.1,0-.15.01l-3.66.74c-.34.05-.55.37-.64.54-.2.37-.26.86-.17,1.33l1.39,6.9c.15.74-.07,1.51-.58,2.06-1.25,1.34-2.7,2.42-4.31,3.22-2.6,1.28-5.03,1.52-6.73,1.52M605.26,91.03l-5.4,3.34-1.55.96c-2.54,1.57-5.2,2.94-7.9,4.07-2.69,1.13-7.13,2.99-9.94,3.12l-.84-4.15c-.42-2.13-1.57-4.04-3.22-5.37-1.49-1.21-3.35-1.87-5.22-1.87-.53,0-1.06.05-1.57.16l-3.62.73c-2.38.45-4.43,1.98-5.63,4.22-1,1.86-1.32,4.06-.89,6.2l.81,4.02c-.14.08-.28.16-.42.23-1.07.53-2.18.77-3.51.77-.39,0-.75-.02-1.09-.04-2.41-.14-4.33-1.05-5.52-1.79l-2.08-1.3-7.24-4.52.21,8.53.06,2.45c.14,5.88,3.3,11.01,8.15,13.42-1.14,6.32,1.94,11.29,2.98,12.73l1.53,2.13,5.31,7.4,2.81-8.66.81-2.49c.37-1.15.81-2.12,1.3-2.88.42,1.4,1.01,2.79,1.83,4.07,2.54,3.95,6.95,6.31,13.13,7.02l1.88.22,6.57.76-1.57-6.42-.45-1.84c-.78-3.19-1.16-5.68-1.32-7.58,1.61,1.07,2.47,2.47,2.85,3.24l1.6,3.26,5.55,11.34,3.05-12.25.88-3.52c.54-2.19,1.16-6.35-.27-11.03,1.71-.78,3.46-1.9,5.09-3.52,5.72-5.67,5.7-13.49,4.79-17.22l-.43-1.76-1.49-6.17h0ZM571.08,116.51l3.86-3.1c.99.41,2.06.68,3.21.83l1.26,1.2c-.12,0-.23,0-.34,0-.39,0-.75.01-1.06.03l-.74.04-1.72.1.03-.29-4.5,1.19h0Z"/>
  <g>
    <path class="cls-1" d="M579.08,179.14c-3.82,0-7.6-.52-11.25-1.54-12.81-3.58-27.08-14.57-30.09-31.05-1.72-9.44.09-18.47,5.11-25.44,5.74-7.97,15.67-11.01,19.91-12.31l.49-.15c3.13-.97,6.93-1.82,7.09-1.86.18-.04,4.61-1.03,8.73-1.56l.67-.09c3.09-.4,6.94-.91,11.02-.91,7.09,0,12.8,1.53,17.45,4.68,15.66,10.6,14.05,31.29,13.81,33.62-.85,8.34-4.28,14.63-7.01,18.44-7.9,11.04-22.01,18.17-35.95,18.17Z"/>
    <path class="cls-3" d="M590.77,107.68c5.24,0,10.8.89,15.52,4.09,14.13,9.56,12.5,28.6,12.31,30.41-.85,8.39-4.64,14.35-6.38,16.78-6.95,9.72-19.62,16.73-33.14,16.73-3.41,0-6.88-.45-10.32-1.41-12.73-3.56-25.03-14.15-27.63-28.35-.41-2.26-2.41-13.18,4.51-22.8,5.28-7.34,14.83-10.01,18.62-11.18,3.04-.94,6.83-1.79,6.83-1.79,0,0,4.41-.99,8.42-1.51,3.17-.41,7.11-.97,11.25-.97M590.77,100.78c-4.3,0-8.27.52-11.47.94l-.67.09c-4.28.55-8.85,1.57-9.04,1.62v.02c-2.74.51-7.3,1.89-7.36,1.91l-.49.15c-4.57,1.4-15.28,4.68-21.7,13.59-5.57,7.74-7.6,17.72-5.7,28.08,3.28,17.95,18.72,29.88,32.56,33.75,3.95,1.1,8.04,1.66,12.18,1.66,15.25,0,30.1-7.52,38.75-19.61,2.97-4.15,6.71-11.01,7.63-20.1.26-2.53,2.02-25.1-15.31-36.83-5.24-3.55-11.58-5.27-19.39-5.27h0Z"/>
  </g>
  <path class="cls-6" d="M580.95,139.17l-1.89-.22c-4.74-.55-8.03-2.21-9.78-4.93-1.81-2.82-2.07-6.65-2.04-8.95-1.36.43-3.19,1.07-4.38,1.74-2.16,1.23-3.83,3.61-4.96,7.09l-.81,2.49-1.52-2.13c-.58-.81-3.4-5.11-1.95-10.29.29-1.02.73-2.01,1.3-2.93-1.01,0-2.11-.18-3.25-.62-3.77-1.46-6.27-5.29-6.38-9.76l-.06-2.45,2.08,1.3c1.65,1.02,4.31,2.29,7.7,2.48,1.4.08,4.01.23,6.9-1.2,1.28-.63,2.44-1.49,3.45-2.54l-1.36-6.74c-.22-1.08-.07-2.19.43-3.11.53-.99,1.39-1.69,2.45-1.88l3.66-.74c1.03-.21,2.11.08,2.99.78.81.66,1.38,1.62,1.6,2.7l1.33,6.62c.06.06.13.12.2.18h0c3.21,2.72,10.92-.51,15.53-2.43,2.93-1.22,5.8-2.71,8.54-4.4l1.55-.96.43,1.77c.08.31,1.76,7.58-3.56,12.85-2.76,2.74-6.01,3.58-8.39,3.79.7.99,1.27,2.05,1.72,3.19,1.62,4.08,1.08,7.85.61,9.73l-.88,3.52-1.6-3.26c-.63-1.29-2.12-3.71-5-5.41-2.4-1.41-4.77-1.74-6.34-1.77-.37,1.55-.93,5.88,1.21,14.63l.45,1.85ZM570.22,121.5l-.23,1.93c0,.06-.65,5.78,1.52,9.16,1.08,1.68,3.09,2.84,5.98,3.44-2.37-10.93-.55-14.83-.32-15.26l.35-.66.74-.04c1.75-.1,5.2.05,8.71,2.12,1.7,1,3,2.21,3.97,3.36-.01-1.4-.24-3.01-.9-4.69-.69-1.73-1.73-3.27-3.1-4.58l-2.99-2.87,4.1.6c.56.08,5.54.69,9.25-2.99,2.85-2.82,3.19-6.37,3.09-8.5-2.33,1.34-4.73,2.53-7.17,3.55-5.5,2.3-13.82,5.78-18.26,2.01h0c-.26-.22-.49-.45-.71-.71l-.23-.26-1.47-7.32c-.1-.47-.34-.9-.67-1.16-.15-.12-.46-.32-.8-.25l-3.66.74c-.34.05-.55.37-.64.54-.2.37-.26.86-.17,1.33l1.39,6.9c.15.74-.07,1.51-.58,2.06-1.25,1.34-2.7,2.42-4.31,3.22-3.51,1.73-6.69,1.56-8.22,1.47-2.24-.13-4.46-.67-6.55-1.6.68,2.3,2.24,4.12,4.32,4.93,2.28.88,4.48.19,5.32-.15l8.31-3.35-6.99,5.61c-.87.7-2.43,2.23-3.11,4.62-.61,2.18-.24,4.17.31,5.64,1.29-2.69,2.99-4.64,5.09-5.83,2.37-1.34,6.59-2.46,6.77-2.51l1.88-.5Z"/>
  <g>
    <path class="cls-2" d="M520.33,182.86c-1.66,0-3.37-.09-5.08-.27-2.23-.23-4.26-.6-6.04-1.09-2.11-.59-3.91-1.56-5.33-2.87-1.47-1.36-2.54-3.11-3.17-5.19-.59-1.95-.74-4.26-.45-7.08l3.44-33.43c.18-1.71-.08-2.92-.76-3.59-.89-.87-2.32-1.41-4.24-1.61-.19-.02-.38-.03-.57-.03-.73,0-1.55.13-2.44.39-.47.14-.86.27-1.19.39l-5.08,49.38-2.53.42c-1.21.2-2.87.33-5.06.41-.56.02-1.13.03-1.69.03-1.62,0-3.27-.08-4.9-.25-2.23-.23-4.26-.6-6.04-1.09-2.11-.59-3.91-1.56-5.33-2.87-1.48-1.36-2.54-3.11-3.17-5.19-.59-1.95-.74-4.27-.45-7.08l3.44-33.43c.26-2.5-.59-3.26-.87-3.52-1.06-.96-2.41-1.51-4.13-1.68-.4-.04-.79-.06-1.15-.06-.74,0-1.39.09-1.94.25-.38.12-.75.23-1.09.35l-5.1,49.52-2.45.47c-1.14.22-2.78.36-5,.44-.55.02-1.1.03-1.66.03-1.66,0-3.36-.09-5.08-.27-2.24-.23-4.27-.6-6.04-1.1-2.11-.59-3.91-1.56-5.33-2.87-1.47-1.36-2.54-3.11-3.17-5.19-.59-1.94-.74-4.26-.45-7.07l4.35-42.25c.33-3.22,1.36-5.82,3.06-7.73,1.47-1.66,3.39-3.15,5.72-4.45,3.69-2.08,8.2-3.63,13.39-4.6,3.26-.62,6.63-.93,10.02-.93,1.95,0,3.94.1,5.92.31,3.89.4,7.71,1.32,11.37,2.74l6.33-61.49-.46-.06-1.43-10.88c-2.3-2.57-7.78-9.36-8.24-16.15-.19-2.83.89-5.56,2.96-7.51,1.78-1.68,4.11-2.6,6.54-2.6.42,0,.84.03,1.25.08l28.94,3.77c2.85.37,5.36,1.98,6.88,4.42,1.5,2.4,1.85,5.31.96,7.98-2.1,6.26-6.63,11.44-12.54,14.37l-4.74,9.16-1.03-.13-6.28,61c2.11-.38,4.4-.58,6.84-.58,1.77,0,3.65.1,5.6.3,3.82.39,7.57,1.3,11.15,2.68,3.69,1.43,6.96,3.46,9.71,6.01,2.84,2.64,5,5.99,6.42,9.95,1.41,3.94,1.85,8.59,1.31,13.82l-4.79,46.55-2.45.47c-1.14.22-2.78.36-5,.44-.55.02-1.1.03-1.65.03ZM482.49,14.65c1.46,4.94,5.73,8.71,10.84,9.23.39.04.79.06,1.19.06,4.44,0,8.61-2.49,10.92-6.3l-22.95-2.99Z"/>
    <path class="cls-3" d="M479.77,5.88c.27,0,.54.02.81.05l28.94,3.77c1.85.24,3.48,1.29,4.47,2.87.97,1.55,1.2,3.42.62,5.14-1.98,5.91-6.4,10.52-11.82,12.88l-4.19,8.09-2.11-.27-7.12,69.19c1-.31,2.02-.6,3.08-.85,2.27-.53,4.8-.8,7.59-.8,1.66,0,3.42.09,5.26.29,3.54.36,6.97,1.19,10.28,2.47,3.31,1.28,6.19,3.06,8.64,5.34,2.45,2.28,4.3,5.16,5.54,8.63,1.24,3.47,1.62,7.59,1.13,12.34l-4.54,44.07c-.96.18-2.46.31-4.49.39-.51.02-1.02.03-1.53.03-1.55,0-3.13-.08-4.74-.25-2.05-.21-3.88-.54-5.48-.99-1.6-.45-2.92-1.15-3.95-2.1-1.03-.95-1.78-2.18-2.24-3.69-.46-1.51-.57-3.43-.33-5.76l3.44-33.43c.29-2.8-.3-4.91-1.75-6.33-1.46-1.42-3.54-2.27-6.24-2.55-.3-.03-.6-.05-.92-.05-1.05,0-2.18.17-3.37.52-1.56.45-2.74.97-3.55,1.54.05.38.07.74.03,1.06-.03.33-.06.63-.09.91l-4.8,46.59c-1.06.17-2.6.3-4.63.37-.52.02-1.05.03-1.57.03-1.51,0-3.03-.08-4.56-.24-2.05-.21-3.88-.54-5.48-.99-1.6-.45-2.92-1.15-3.95-2.1-1.03-.95-1.78-2.18-2.23-3.69-.46-1.51-.57-3.43-.33-5.76l3.44-33.43c.29-2.8-.37-4.92-1.96-6.35-1.6-1.44-3.61-2.28-6.03-2.53-.52-.05-1.01-.08-1.49-.08-1.07,0-2.05.13-2.92.4-1.27.39-2.34.77-3.23,1.15l-5.06,49.1c-.96.18-2.46.31-4.49.39-.51.02-1.02.03-1.53.03-1.55,0-3.13-.08-4.74-.25-2.05-.21-3.88-.54-5.48-.99-1.6-.45-2.92-1.15-3.95-2.1-1.03-.95-1.78-2.18-2.23-3.69-.46-1.51-.57-3.43-.33-5.76l4.35-42.25c.26-2.52,1-4.47,2.23-5.85,1.22-1.38,2.84-2.63,4.84-3.74,3.4-1.91,7.53-3.32,12.38-4.24,3.08-.58,6.21-.87,9.39-.87,1.84,0,3.7.1,5.58.29,3.82.39,7.52,1.32,11.1,2.77,1.23.5,2.37,1.08,3.47,1.69l7.15-69.46-1.14-.15-1.23-9.37c-3.4-3.55-7.73-9.72-8.08-14.88-.12-1.82.57-3.58,1.91-4.84,1.16-1.09,2.68-1.69,4.25-1.69M494.52,27.3c6.78,0,13.07-4.51,15.31-11.19.12-.37,0-.67-.11-.86-.19-.3-.5-.5-.85-.54l-28.94-3.77c-.05,0-.1,0-.15,0-.3,0-.58.11-.8.32-.14.13-.36.41-.33.83.53,7.86,6.7,14.38,14.35,15.15.51.05,1.02.08,1.53.08M479.77-.83h0c-3.29,0-6.43,1.25-8.84,3.51-2.81,2.64-4.27,6.35-4.01,10.19.49,7.16,5.6,14.08,8.39,17.36l.96,7.31.55,4.16-5.66,55c-2.66-.76-5.37-1.28-8.12-1.57-2.1-.22-4.21-.33-6.27-.33-3.59,0-7.17.33-10.64.99-5.55,1.04-10.41,2.72-14.43,4.98-2.63,1.47-4.85,3.2-6.57,5.14-2.17,2.45-3.48,5.68-3.88,9.62l-4.35,42.25c-.34,3.26-.15,6.01.58,8.4.8,2.65,2.18,4.89,4.1,6.67,1.82,1.68,4.07,2.91,6.7,3.64,1.96.55,4.18.95,6.6,1.2,1.83.19,3.66.28,5.43.28.59,0,1.18-.01,1.77-.03,2.43-.09,4.18-.25,5.51-.5l4.9-.94.51-4.97,4.6-44.63c.23,0,.48.02.74.04,1.07.11,1.66.41,2.02.67.02.16.03.43-.02.85l-3.44,33.43c-.34,3.26-.15,6.01.58,8.4.8,2.65,2.18,4.89,4.1,6.67,1.82,1.68,4.07,2.9,6.7,3.64,1.96.55,4.18.95,6.6,1.2,1.74.18,3.51.27,5.24.27.6,0,1.21-.01,1.81-.03,2.34-.08,4.13-.23,5.48-.46l5.06-.83.53-5.1,4.59-44.56c.22-.03.39-.04.52-.04.08,0,.16,0,.23.01,1.01.1,1.67.32,2.02.52.02.19.03.51-.02,1l-3.44,33.43c-.34,3.27-.15,6.01.58,8.4.8,2.65,2.18,4.89,4.1,6.67,1.82,1.68,4.07,2.9,6.7,3.64,1.96.55,4.18.95,6.6,1.2,1.83.19,3.66.28,5.43.28.59,0,1.18-.01,1.77-.03,2.43-.09,4.18-.25,5.51-.5l4.91-.94.51-4.97,4.54-44.07c.59-5.74.09-10.88-1.49-15.29-1.61-4.48-4.06-8.28-7.29-11.28-3.07-2.85-6.7-5.1-10.78-6.69-3.86-1.5-7.9-2.47-12.02-2.89-2.06-.21-4.07-.32-5.95-.32-1.05,0-2.07.03-3.07.1l5.51-53.55,2.08-4.02,3.18-6.14c6.22-3.4,10.97-9.04,13.23-15.79,1.21-3.63.74-7.57-1.3-10.83-2.06-3.29-5.45-5.46-9.29-5.96l-28.94-3.77c-.55-.07-1.12-.11-1.68-.11h0ZM494.52,20.59c-.29,0-.57-.01-.86-.04-1.51-.15-2.94-.72-4.17-1.59l8.17,1.06c-1,.37-2.05.58-3.14.58h0Z"/>
  </g>
  <g>
    <g>
      <path class="cls-6" d="M154.17,134.6c-4.57-1.57-7.5-3.99-8.7-7.21-.88-2.37-.83-5.03-.5-7.26-.84.12-1.54.26-2.04.42-1.82.56-3.51,2.16-5.02,4.73l-2.66,4.55-2.09-4.84c-.41-.95-2.31-5.93.32-10.86.18-.34.39-.68.6-1.01-.4-.19-.8-.42-1.17-.67-3.58-2.37-5.32-6.88-4.43-11.49l.94-4.85,3.54,3.45c1.15,1.12,3.09,2.62,5.79,3.37.78.22,1.96.55,3.4.55.77,0,1.53-.09,2.28-.28.87-.22,1.71-.55,2.5-1.01l.09-5.53c.02-1.35.5-2.64,1.35-3.62.94-1.1,2.21-1.71,3.55-1.71l3.56.06c1.39.02,2.72.69,3.63,1.83.81,1.01,1.25,2.32,1.22,3.67l-.09,5.68c.74.75,2.31,1.14,4.55,1.14,2.75,0,5.94-.58,8.28-1.01,2.79-.51,5.58-1.25,8.3-2.21l3.47-1.22.08,3.68c0,.32.12,7.95-6.38,12.09-2.1,1.33-4.45,2.04-6.99,2.09.12.46.22.93.3,1.4.72,4.38-.62,7.97-1.49,9.72l-3.24,6.55-1.74-7.1c-.27-1.12-1.03-3.28-3-5.11-1.17-1.08-2.43-1.74-3.5-2.13-.6,1.79-1.34,5.32-1.19,11.55l.09,3.83-3.62-1.24ZM150.92,118c-.43,1.26-1.35,5.08-.44,7.53.32.85.96,1.63,1.93,2.32.36-8.69,2.53-11.7,3-12.24l.97-1.14,1.48.24c1.75.28,5.13,1.17,8.15,3.98.19.18.38.36.56.55-.26-1.42-.8-2.76-1.63-3.98l-4.5-6.7c-1.7-.46-3.06-1.23-4.09-2.32l-15.1,7.5c-.76.38-2.17,1.26-3.06,2.92-.1.19-.19.39-.27.59,1.08-.8,2.23-1.39,3.44-1.77,2.61-.81,6.76-.98,6.93-.99l3.91-.17-1.28,3.7ZM168.09,111.27c.14.05,1.43.52,3.15.52s3.14-.42,4.45-1.25c1.57-1,2.52-2.34,3.09-3.66-1.58.42-3.16.78-4.74,1.07-2.69.49-6.02,1.1-9.19,1.1-1.21,0-2.3-.09-3.3-.27l6.55,2.48ZM134.97,107.24c.26.29.56.55.89.77.96.64,2.03.77,2.77.77.43,0,.77-.04.99-.08l.3-.05c-1.12-.16-2.02-.41-2.6-.58-.8-.22-1.59-.5-2.35-.83ZM152.36,96.77l-.11,6.46c-.02,1.16-.6,2.24-1.55,2.9-.52.36-1.05.68-1.61.97l6.99-1.18c-.08-.09-.16-.19-.23-.29-.23-.31-.44-.62-.62-.97l-.33-.61.12-7.24s0-.06,0-.08l-2.64-.04s0,.06,0,.09Z"/>
      <path class="cls-3" d="M151.93,92.79s.07,0,.11,0l3.42.06c.96.02,1.88.49,2.52,1.29.6.75.92,1.72.9,2.73l-.1,6.2c.04.06.09.13.14.2,1.1,1.44,3.33,1.9,5.87,1.9,2.88,0,6.14-.6,8.54-1.04,2.86-.52,5.73-1.29,8.52-2.27l1.58-.56.04,1.67c0,.29.09,7.14-5.71,10.83-2.27,1.44-4.58,1.87-6.51,1.87-.63,0-1.22-.05-1.75-.11.43,1.02.74,2.09.92,3.2.66,3.98-.57,7.25-1.36,8.84l-1.48,2.98-.79-3.23c-.31-1.28-1.18-3.74-3.43-5.83-1.87-1.74-3.93-2.5-5.33-2.83-.64,1.31-1.98,5.09-1.78,13.36l.04,1.74-1.65-.57c-4.14-1.42-6.77-3.55-7.81-6.34-1.07-2.88-.55-6.37-.07-8.42-1.3.12-3.07.33-4.27.7-2.18.67-4.15,2.49-5.84,5.39l-1.21,2.07-.95-2.21c-.36-.84-2.05-5.25.27-9.61.46-.86,1.05-1.66,1.74-2.37-.9-.21-1.86-.57-2.79-1.19-3.09-2.05-4.59-5.97-3.81-10l.43-2.21,1.61,1.57c1.27,1.24,3.42,2.9,6.42,3.73.83.23,2.15.6,3.79.6.8,0,1.69-.09,2.63-.32,1.27-.32,2.48-.86,3.59-1.6l.11-6.31c.02-1.01.37-1.97.99-2.7.64-.75,1.51-1.21,2.46-1.21M142.16,107.36c-1.98,0-3.54-.43-4.45-.69-1.98-.55-3.87-1.48-5.56-2.72.16,2.19,1.2,4.14,2.9,5.26,1.23.81,2.56,1.01,3.57,1.01.52,0,.95-.05,1.23-.1l8.11-1.37-7.37,3.66c-.92.46-2.62,1.52-3.69,3.53-.98,1.83-1.03,3.69-.83,5.12,1.68-2.16,3.59-3.57,5.71-4.23,2.39-.74,6.39-.92,6.56-.92l1.78-.08-.58,1.69c-.02.05-1.72,5.05-.43,8.51.64,1.72,2.21,3.15,4.69,4.26.02-10.27,2.42-13.4,2.71-13.74l.44-.52.68.11c1.59.26,4.65,1.06,7.4,3.61,1.33,1.23,2.25,2.57,2.9,3.79.26-1.25.38-2.75.11-4.38-.28-1.69-.91-3.27-1.88-4.72l-2.12-3.16,3.56,1.35c.27.1,1.73.62,3.66.62,1.56,0,3.42-.33,5.22-1.48,3.11-1.97,4.11-5.09,4.43-7.01-2.35.75-4.74,1.34-7.12,1.78-2.62.48-5.89,1.08-8.93,1.08-3.22,0-6.18-.67-7.85-2.86-.19-.25-.35-.5-.5-.78l-.15-.28.12-6.86c0-.44-.13-.87-.37-1.17-.11-.14-.35-.37-.67-.38l-3.42-.06s-.02,0-.03,0c-.3,0-.54.23-.65.36-.25.29-.4.72-.41,1.16l-.11,6.46c-.01.69-.36,1.34-.93,1.73-1.38.96-2.89,1.64-4.5,2.04-1.15.29-2.23.39-3.21.39M151.93,89.89c-1.75,0-3.45.81-4.66,2.22-1.06,1.24-1.67,2.85-1.69,4.54l-.08,4.66c-.46.21-.93.37-1.41.49-.63.16-1.28.24-1.93.24-1.25,0-2.27-.28-3.01-.49-2.4-.67-4.14-2.01-5.17-3.02l-1.61-1.57-3.85-3.76-1.02,5.28-.43,2.21c-1,5.18.97,10.26,5.03,12.96-2.78,5.46-.71,10.87-.27,11.91l.95,2.21,2.27,5.27,2.9-4.95,1.21-2.07c1.29-2.21,2.73-3.62,4.17-4.07-.1,1.93.06,4.02.78,5.95,1.35,3.65,4.58,6.36,9.59,8.08l1.65.56,3.94,1.35-.1-4.17-.04-1.74c-.11-4.55.27-7.58.69-9.48.52.3,1.05.68,1.56,1.15,1.69,1.57,2.34,3.43,2.58,4.39l.79,3.23,1.89,7.73,3.53-7.13,1.48-2.98c.93-1.89,2.38-5.74,1.65-10.44,2.15-.28,4.16-1.01,6.01-2.19,7.19-4.57,7.06-12.99,7.06-13.35l-.04-1.67-.09-4-3.78,1.33-1.58.56c-2.65.93-5.37,1.66-8.08,2.16-2.28.42-5.4.99-8.02.99-1.59,0-2.56-.22-3.09-.45l.08-4.9c.03-1.69-.52-3.32-1.54-4.6-1.19-1.48-2.91-2.35-4.74-2.38l-3.4-.06c-.06,0-.12,0-.18,0h0ZM153.39,104.9c.04-.12.08-.24.12-.36l.17.31-.28.05h0ZM145.49,113.23l3.77-1.87,6.84-3.4c.95.78,2.09,1.38,3.41,1.81l2.1,3.13,1.29,1.91c-1.93-.94-3.68-1.36-4.81-1.54l-.68-.11-1.62-.26-1.06,1.25-.44.52c-.53.62-1.84,2.54-2.67,6.92.16-1.34.48-2.57.67-3.13l.58-1.68,1.39-4.03-4.26.18-1.78.08c-.23,0-1.34.06-2.73.21h0ZM169.54,110.16c1.69-.22,3.31-.52,4.74-.78.24-.04.48-.09.72-.14-.03.02-.07.04-.1.07-1.07.68-2.31,1.02-3.67,1.02-.66,0-1.25-.08-1.7-.17h0Z"/>
    </g>
    <g>
      <path class="cls-5" d="M123.53,157.47c-1.46-1.35-2.81-2.8-4.02-4.33-7.64-9.63-12.35-25.59-5.66-39.56l.06-.12c.15-.31.37-.77.68-1.34,4.78-8.77,13.47-12.43,16.99-13.59,3.27-1.08,6.74-1.63,10.31-1.63,4.3,0,8.52.8,11.89,2.24l.44.19c.98.43,2.79,1.23,5.34,2.06,3.25,1.07,5.75,1.56,6.69,1.74l.24.05c5.98,1.21,17.31,6.8,22.22,16.63,6.26,12.53.56,28.35-7.98,36.87-4.25,4.24-9.95,7.48-16.95,9.65-4.68,1.45-8.56,1.79-10.47,1.87-.56.02-1.13.03-1.7.03h0c-2.76,0-5.53-.27-8.26-.81l-21.44,8.97,1.63-18.93Z"/>
      <path class="cls-3" d="M141.88,100.23c4.2,0,7.97.85,10.58,1.97.84.36,2.93,1.33,6.05,2.36,3.76,1.23,6.61,1.75,7.3,1.89,4.44.9,15.3,5.64,19.9,14.85,5.61,11.22.14,25.54-7.35,33.02-5.81,5.8-13.56,8.2-15.58,8.82-4.64,1.43-8.4,1.67-9.62,1.72-.52.02-1.04.03-1.56.03-2.84,0-5.74-.32-8.59-.96-5.77,2.42-11.54,4.83-17.32,7.25.43-5.04.87-10.07,1.3-15.11-1.75-1.48-3.39-3.15-4.87-5.01-7.56-9.53-11-24.07-5.27-36.05.12-.26.34-.72.66-1.31,4.54-8.33,13.38-11.45,15.11-12.02,3.14-1.04,6.31-1.46,9.26-1.46M141.88,93.56c-3.93,0-7.75.6-11.36,1.8-3.89,1.29-13.52,5.35-18.87,15.17-.36.67-.61,1.2-.76,1.51l-.05.1c-7.31,15.27-2.23,32.64,6.06,43.08.98,1.24,2.04,2.42,3.17,3.55l-.39,4.53-.63,7.32-.95,10.98,10.17-4.26,10.95-4.58,4.49-1.88c2.61.46,5.26.69,7.89.69.61,0,1.23-.01,1.84-.04,2.07-.08,6.28-.46,11.31-2.02,7.52-2.33,13.69-5.85,18.32-10.48,9.36-9.35,15.56-26.8,8.61-40.72-6.13-12.27-19.79-17.45-24.54-18.41l-.25-.05c-.88-.17-3.23-.64-6.3-1.64-2.39-.78-4.11-1.54-5.03-1.94l-.47-.21c-3.78-1.62-8.47-2.51-13.21-2.51h0Z"/>
    </g>
    <path class="cls-6" d="M156.29,133.79l-1.65-.57c-4.14-1.42-6.77-3.55-7.81-6.34-1.07-2.88-.55-6.37-.07-8.42-1.3.12-3.07.33-4.27.7-2.18.67-4.15,2.49-5.84,5.39l-1.21,2.07-.95-2.21c-.36-.84-2.05-5.25.27-9.61.46-.86,1.05-1.66,1.74-2.37-.9-.21-1.86-.57-2.79-1.19-3.09-2.05-4.59-5.97-3.81-10l.43-2.21,1.61,1.57c1.27,1.24,3.42,2.9,6.42,3.73,1.24.35,3.55.99,6.42.28,1.27-.32,2.48-.86,3.59-1.6l.11-6.31c.02-1.01.37-1.97.99-2.7.67-.78,1.58-1.24,2.56-1.2l3.42.06c.96.02,1.88.49,2.52,1.29.6.75.92,1.72.9,2.73l-.1,6.2c.04.06.09.13.14.2h0c2.34,3.07,9.89,1.69,14.4.86,2.86-.52,5.73-1.29,8.52-2.27l1.58-.56.04,1.67c0,.29.09,7.14-5.71,10.83-3.01,1.91-6.09,2.03-8.26,1.75.43,1.02.74,2.09.92,3.2.66,3.98-.57,7.25-1.36,8.84l-1.48,2.98-.79-3.23c-.31-1.28-1.18-3.74-3.43-5.83-1.87-1.74-3.93-2.5-5.33-2.83-.64,1.31-1.98,5.09-1.78,13.36l.04,1.74ZM150.13,115.84l-.58,1.69c-.02.05-1.72,5.05-.43,8.51.64,1.72,2.21,3.15,4.69,4.26.02-10.27,2.42-13.4,2.71-13.74l.44-.52.68.11c1.59.26,4.65,1.06,7.4,3.61,1.33,1.23,2.25,2.57,2.9,3.79.26-1.25.38-2.75.11-4.38-.28-1.69-.91-3.27-1.88-4.72l-2.12-3.16,3.56,1.35c.48.18,4.83,1.71,8.88-.86,3.11-1.97,4.11-5.09,4.43-7.01-2.35.75-4.74,1.34-7.12,1.78-5.39.99-13.53,2.48-16.77-1.78h0c-.19-.25-.35-.5-.5-.78l-.15-.28.12-6.86c0-.44-.13-.87-.37-1.17-.11-.14-.35-.37-.67-.38l-3.42-.06c-.31-.02-.57.22-.68.36-.25.29-.4.72-.41,1.16l-.11,6.46c-.01.69-.36,1.34-.93,1.73-1.38.96-2.89,1.64-4.5,2.04-3.49.86-6.31.08-7.66-.3-1.98-.55-3.87-1.48-5.56-2.72.16,2.19,1.2,4.14,2.9,5.26,1.87,1.24,3.98,1.05,4.8.91l8.11-1.37-7.37,3.66c-.92.46-2.62,1.52-3.69,3.53-.98,1.83-1.03,3.69-.83,5.12,1.68-2.16,3.59-3.57,5.71-4.23,2.39-.74,6.39-.92,6.56-.92l1.78-.08Z"/>
  </g>
</svg>