<?xml version="1.0" encoding="UTF-8"?>
<svg id="Layer_1" data-name="Layer 1" xmlns="http://www.w3.org/2000/svg" viewBox="0 0 1000 1000">
  <defs>
    <style>
      .cls-1 {
        fill: #861738;
      }

      .cls-2 {
        fill: #5b0522;
      }
    </style>
  </defs>
  <path class="cls-1" d="M322.79,767.48c-33.08,0-53.45-16.47-69.02-32.58-15.91-16.47-31.11-38.08-23.23-73.52,8.35-37.56,41.93-85.92,102.66-147.85l6.85-6.98,45.8,53.09,235.34-217.72c-.86-2.35-1.62-4.73-2.3-7.14-3.57-6.34-6.2-12.43-7.84-18.12-13.27-46.2,25.34-107.39,93.91-148.8l6.16-3.72,139.99,145.54-3.36,5.85c-31.88,55.61-81.34,91.54-126.02,91.54h0c-6.27,0-12.41-.73-18.22-2.16-6.3-1.56-12.94-4.13-19.78-7.65-4.19-.47-7.67-.96-10.2-1.35l-238.54,220.67,56.36,65.33-7.29,5.84c-67,53.65-119.75,79.73-161.28,79.73ZM704.86,268.77c-15.77,13.17-21.81,27.57-19.41,35.92,1.49,5.2,6.76,11.6,9.64,14.57,2.54,2.61,10.67,9.78,17.78,11.53,1.31.32,2.72.49,4.18.49,9.34,0,20.55-6.55,29.81-17.11l-42-45.4Z"/>
  <path class="cls-2" d="M709.63,175.57c43.44,45.17,86.88,90.33,130.33,135.5-31.09,54.23-78.26,87.01-118.22,87.01-5.51,0-10.89-.62-16.07-1.9-6.61-1.63-13.13-4.39-19.26-7.67-9.53-1.01-15.75-2.19-15.75-2.19l-248.16,229.57,55.94,64.84c-73.86,59.14-122.19,77.75-155.66,77.75-30.52,0-48.68-15.48-62.54-29.84-29.47-30.5-52.77-74.07,79.38-208.82l45.5,52.74,246.73-228.25c-1.88-4.23-3.4-8.58-4.58-13-3.16-5.48-5.9-11.32-7.57-17.14-11.82-41.13,24.24-98.95,89.91-138.61M717.05,340.28c13.75,0,29.67-9.85,41.65-26.56l-52.79-57.07c-21.82,15.34-33.37,35.68-29.1,50.53,2.46,8.58,10.76,17.24,11.83,18.35.76.78,11.14,11.3,22.08,14,2.04.5,4.16.75,6.33.75M712.63,152.72l-12.31,7.43c-34.29,20.71-61.91,46.45-79.86,74.44-9.03,14.09-15.24,28.24-18.45,42.07-3.5,15.07-3.36,29.36.4,42.47,1.74,6.07,4.47,12.49,8.12,19.11.1.33.2.67.3,1l-224.24,207.45-33.33-38.63-12.78-14.81-13.7,13.97c-32.02,32.65-57.04,62.15-74.35,87.69-16.35,24.12-26.39,45.22-30.67,64.51-3.97,17.85-2.89,34.49,3.2,49.46,5.7,14,14.93,24.6,22.34,32.27,16.88,17.47,39.05,35.33,75.49,35.33,43.65,0,98.25-26.72,166.91-81.7l14.58-11.67-12.2-14.14-44.59-51.68,229.01-211.86c1.41.19,2.95.39,4.61.59,6.94,3.46,13.74,6.02,20.25,7.63,6.52,1.61,13.38,2.43,20.38,2.43,47.85,0,100.38-37.71,133.83-96.06l6.71-11.71-9.35-9.72-66.38-69.02-63.94-66.48-9.97-10.36h0ZM717.05,322.28c-.73,0-1.41-.08-2.02-.23-4.17-1.03-10.51-6.02-13.48-9.07-3.4-3.51-6.74-8.34-7.44-10.78-.94-3.26,1.63-11.47,10.3-20.68l30.01,32.44c-6.55,5.68-12.91,8.31-17.36,8.31h0Z"/>
</svg>