<?xml version="1.0" encoding="UTF-8"?>
<svg id="Layer_1" xmlns="http://www.w3.org/2000/svg" version="1.1" viewBox="0 0 944.3 562.5">
  <!-- Generator: Adobe Illustrator 29.2.0, SVG Export Plug-In . SVG Version: 2.1.0 Build 108)  -->
  <defs>
    <style>
      .st0 {
        fill: #fff;
      }

      .st1 {
        fill: #ef8035;
        stroke: #a04a1f;
        stroke-width: 15px;
      }

      .st1, .st2 {
        stroke-miterlimit: 10;
      }

      .st2 {
        fill: none;
        stroke: #0c0000;
        stroke-width: 17.7px;
      }
    </style>
  </defs>
  <g>
    <path class="st1" d="M515.4,404.5c-38.4.1-83.2-3-153.5-16.9-75.8-15-308.5-61.1-307.5-115.4.9-56.2,251.9-94.7,312.6-104,40.1-6.1,94.2-12.5,161.4-9.9,98.5,3.8,189.9,7.3,225,67.7,18.1,31.2,19.8,75,2.6,107.4-37.4,70.6-155.2,70.9-240.6,71.1h0Z"/>
    <path class="st2" d="M824.2,349.8c-7-14.3-17.2-23-23.1-27.3,7,1.5,42.2,8.3,68.7-13.5,5.7-4.7,19-15.6,20-32.6,1.4-22.6-20.1-38-23.7-40.7-27.6-19.6-62.3-7.5-66.8-5.9,7.5-6.9,13.6-15.1,17.6-24.8,1.4-3.4,13.9-33.8-.2-48.8-13.7-14.5-42.8-4.6-44.1-4.2-17.8,6.3-24.9,18.5-45.7,43.6-10.2,12.4-25.3,29.9-45.3,49.9,3.7,4.9,12,17.1,13.5,34.9,1.7,20.7-6.8,35.9-9.9,40.9,21.8,18,38.5,34,49.9,45.4,22.9,23,31.2,34.6,49.6,39.1,2.4.6,30.6,7.1,42.9-8.3,12.4-15.5-.4-41.8-3.4-47.8Z"/>
  </g>
  <g>
    <path class="st0" d="M233.1,242.4l11.6,46.3,12.4-46.1h16.8c0,.1-.6,64-.6,64h-12.9c0-.1.2-17.4.2-17.4l1.4-26.6-13.2,43.8h-8.8c0,0-12.4-44.1-12.4-44.1l.9,26.6-.2,17.3h-12.9c0-.1.6-63.9.6-63.9h16.8c0,.1,0,.2,0,.2Z"/>
    <path class="st0" d="M317,279.4l-20.1-.2v16.9c-.1,0,23.6.2,23.6.2v10.7c-.1,0-36.8-.3-36.8-.3l.6-63.8,36.6.3v10.7c-.1,0-23.8-.2-23.8-.2v15.1c-.1,0,19.9.2,19.9.2v10.4c0,0,0,0,0,0Z"/>
    <path class="st0" d="M361.1,279.8l-20.1-.2v16.9c-.1,0,23.6.2,23.6.2v10.7c-.1,0-36.8-.3-36.8-.3l.6-63.8,36.6.3v10.7c-.1,0-23.8-.2-23.8-.2v15.1c-.1,0,19.9.2,19.9.2v10.4c0,0,0,0,0,0Z"/>
    <path class="st0" d="M391.4,284.4h-6.4c0,0-.2,23.3-.2,23.3h-12.9c0-.1.6-63.9.6-63.9l20.6.2c6.5,0,11.4,1.8,14.9,5.2,3.5,3.4,5.2,8.2,5.1,14.3,0,8.5-3.2,14.4-9.4,17.7l10.9,26.2v.6h-13.9c0-.1-9.4-23.5-9.4-23.5h0ZM385.1,273.6h7.3c2.6,0,4.5-.7,5.8-2.4s2-4,2-6.8c0-6.4-2.4-9.6-7.4-9.7h-7.5c0,0-.2,19-.2,19h0Z"/>
    <path class="st0" d="M455.8,308.3h-12.9c0-.1.6-63.9.6-63.9h12.9c0,.1-.6,63.9-.6,63.9Z"/>
    <path class="st0" d="M511.2,308.8h-12.9c0-.1-18.5-42.2-18.5-42.2l-.4,41.9h-12.9c0-.1.6-63.9.6-63.9h12.9c0,.1,18.5,42.2,18.5,42.2l.4-41.9h12.9c0,.1-.6,63.9-.6,63.9h0Z"/>
    <path class="st0" d="M554.7,283.1l-20-.2-.2,26h-12.9c0-.1.6-63.9.6-63.9l35.3.3v10.7c0,0-22.5-.2-22.5-.2l-.2,16.3,20,.2v10.7c0,0,0,0,0,0Z"/>
    <path class="st0" d="M609.4,283.5c0,8.6-2.2,15.2-6.2,19.9-4.1,4.7-9.7,7-16.9,7-7.2,0-12.8-2.5-16.8-7.2-4-4.7-6.1-11.3-6-19.8v-10.9c.2-8.8,2.3-15.6,6.4-20.5,4.1-4.9,9.8-7.3,17-7.2,7.1,0,12.7,2.5,16.7,7.4,4,4.9,6.1,11.7,6,20.4v10.9c0,0-.1,0-.1,0ZM596.6,272.7c0-5.8-.7-10-2.3-12.9-1.6-2.8-4.1-4.2-7.6-4.3-3.4,0-6,1.3-7.6,4-1.7,2.7-2.5,6.8-2.7,12.3v11.4c-.1,5.6.6,9.7,2.3,12.4,1.6,2.7,4.2,4,7.7,4,3.4,0,5.9-1.2,7.5-3.8,1.7-2.6,2.5-6.6,2.6-12v-11.1c0,0,0,0,0,0Z"/>
  </g>
</svg>